<?xml version="1.0" encoding="UTF-8"?>
<svg id="Layer_1" data-name="Layer 1" xmlns="http://www.w3.org/2000/svg" xmlns:xlink="http://www.w3.org/1999/xlink" viewBox="0 0 683.75 567.26">
  <defs>
    <style>
      .cls-1 {
        clip-path: url(#clippath-11);
      }

      .cls-2 {
        stroke: #f0f0f0;
        stroke-linecap: square;
      }

      .cls-2, .cls-3, .cls-4, .cls-5, .cls-6, .cls-7 {
        stroke-miterlimit: 10;
      }

      .cls-2, .cls-8, .cls-9, .cls-10, .cls-11, .cls-12, .cls-13, .cls-14 {
        fill: none;
      }

      .cls-2, .cls-8, .cls-9, .cls-10, .cls-13, .cls-14 {
        stroke-width: 3px;
      }

      .cls-3 {
        fill: #ff5d73;
      }

      .cls-3, .cls-8 {
        stroke: #ff5d73;
      }

      .cls-4 {
        fill: #7f7f7f;
      }

      .cls-4, .cls-10 {
        stroke: #7f7f7f;
      }

      .cls-15 {
        clip-path: url(#clippath-2);
      }

      .cls-16 {
        fill-rule: evenodd;
      }

      .cls-16, .cls-11 {
        stroke-width: 0px;
      }

      .cls-8, .cls-9, .cls-10, .cls-17, .cls-12, .cls-13, .cls-14 {
        stroke-linejoin: round;
      }

      .cls-9, .cls-17 {
        stroke: #faa916;
      }

      .cls-18 {
        clip-path: url(#clippath-6);
      }

      .cls-17 {
        fill: #faa916;
      }

      .cls-19 {
        clip-path: url(#clippath-7);
      }

      .cls-20 {
        clip-path: url(#clippath-1);
      }

      .cls-21 {
        clip-path: url(#clippath-4);
      }

      .cls-12 {
        stroke: #cbcbcb;
      }

      .cls-5 {
        fill: #d5e8d4;
      }

      .cls-5, .cls-14 {
        stroke: #d5e8d4;
      }

      .cls-6 {
        fill: #cda2be;
      }

      .cls-6, .cls-13 {
        stroke: #cda2be;
      }

      .cls-22 {
        clip-path: url(#clippath-9);
      }

      .cls-23 {
        clip-path: url(#clippath);
      }

      .cls-7 {
        fill: #f0f0f0;
        stroke: #ccc;
        stroke-width: .5px;
      }

      .cls-24 {
        clip-path: url(#clippath-3);
      }

      .cls-25 {
        clip-path: url(#clippath-8);
      }

      .cls-26 {
        clip-path: url(#clippath-5);
      }

      .cls-27 {
        clip-path: url(#clippath-10);
      }
    </style>
    <clipPath id="clippath">
      <rect class="cls-11" x="50.55" y="1.5" width="630.36" height="531.5"/>
    </clipPath>
    <clipPath id="clippath-1">
      <rect class="cls-11" x="50.55" y="1.5" width="630.36" height="531.5"/>
    </clipPath>
    <clipPath id="clippath-2">
      <rect class="cls-11" x="50.55" y="1.5" width="630.36" height="531.5"/>
    </clipPath>
    <clipPath id="clippath-3">
      <rect class="cls-11" x="50.55" y="1.5" width="630.36" height="531.5"/>
    </clipPath>
    <clipPath id="clippath-4">
      <rect class="cls-11" x="50.55" y="1.5" width="630.36" height="531.5"/>
    </clipPath>
    <clipPath id="clippath-5">
      <rect class="cls-11" x="50.55" y="1.5" width="630.36" height="531.5"/>
    </clipPath>
    <clipPath id="clippath-6">
      <rect class="cls-11" x="50.55" y="1.5" width="630.36" height="531.5"/>
    </clipPath>
    <clipPath id="clippath-7">
      <rect class="cls-11" x="50.55" y="1.5" width="630.36" height="531.5"/>
    </clipPath>
    <clipPath id="clippath-8">
      <rect class="cls-11" x="50.55" y="1.5" width="630.36" height="531.5"/>
    </clipPath>
    <clipPath id="clippath-9">
      <rect class="cls-11" x="50.55" y="1.5" width="630.36" height="531.5"/>
    </clipPath>
    <clipPath id="clippath-10">
      <rect class="cls-11" x="50.55" y="1.5" width="630.36" height="531.5"/>
    </clipPath>
    <clipPath id="clippath-11">
      <rect class="cls-11" x="50.55" y="1.5" width="630.36" height="531.5"/>
    </clipPath>
  </defs>
  <g class="cls-23">
    <line class="cls-12" x1="79.2" y1="533" x2="79.2" y2="1.5"/>
  </g>
  <path class="cls-16" d="M50.8,538.03v3.83h1.74c.64,0,1.14-.16,1.49-.5s.53-.81.53-1.42-.18-1.08-.53-1.42-.85-.5-1.49-.5h-1.74M49.42,536.89h3.12c1.14,0,2.01.26,2.59.78.59.51.88,1.27.88,2.27s-.29,1.77-.88,2.28c-.58.51-1.45.77-2.59.77h-1.74v4.1h-1.38v-10.21h0Z"/>
  <path class="cls-16" d="M61.96,540.62c-.14-.08-.29-.14-.46-.18-.16-.04-.35-.06-.55-.06-.71,0-1.26.23-1.64.7-.38.46-.57,1.12-.57,1.99v4.03h-1.26v-7.66h1.26v1.19c.27-.46.61-.81,1.03-1.03.42-.23.94-.34,1.54-.34.09,0,.18,0,.29.02.1,0,.22.03.35.05v1.29h0Z"/>
  <path class="cls-16" d="M69.59,542.96v.62h-5.78c.05.87.31,1.52.78,1.98.47.45,1.12.68,1.96.68.49,0,.95-.06,1.4-.18.46-.12.91-.29,1.35-.53v1.19c-.45.19-.92.33-1.39.44s-.96.15-1.44.15c-1.22,0-2.19-.36-2.91-1.07-.71-.71-1.07-1.67-1.07-2.88s.33-2.25,1.01-2.98c.68-.74,1.59-1.11,2.74-1.11,1.03,0,1.85.33,2.44,1,.6.66.9,1.56.9,2.7M68.33,542.59c0-.69-.21-1.24-.58-1.65s-.87-.62-1.49-.62c-.7,0-1.26.2-1.69.59-.42.4-.66.96-.72,1.67h4.48Z"/>
  <path class="cls-16" d="M77.19,539.74v1.18c-.36-.2-.71-.34-1.07-.44-.36-.1-.72-.15-1.08-.15-.81,0-1.45.26-1.9.78-.45.51-.68,1.24-.68,2.17s.23,1.66.68,2.18c.45.51,1.09.77,1.9.77.36,0,.72-.05,1.08-.14.36-.1.72-.25,1.07-.44v1.16c-.35.16-.72.29-1.09.37-.38.08-.77.12-1.2.12-1.16,0-2.07-.36-2.75-1.09s-1.02-1.7-1.02-2.93.34-2.23,1.03-2.95c.69-.72,1.63-1.07,2.82-1.07.39,0,.77.04,1.13.12.37.08.72.2,1.07.36h0Z"/>
  <path class="cls-16" d="M79.36,539.44h1.26v7.66h-1.26v-7.66M79.36,536.46h1.26v1.59h-1.26v-1.59h0Z"/>
  <path class="cls-16" d="M88.08,539.67v1.19c-.36-.18-.72-.32-1.11-.41s-.78-.14-1.19-.14c-.62,0-1.09.1-1.41.29-.31.19-.46.48-.46.86,0,.29.11.52.33.69.23.16.67.32,1.35.47l.43.1c.9.19,1.52.46,1.9.81s.57.83.57,1.46c0,.71-.28,1.27-.85,1.69-.56.42-1.33.62-2.32.62-.41,0-.84-.04-1.29-.12-.44-.08-.91-.2-1.4-.36v-1.3c.46.24.92.42,1.37.55.45.12.9.18,1.34.18.59,0,1.05-.1,1.37-.3.32-.21.48-.49.48-.86,0-.34-.12-.6-.35-.79-.23-.18-.73-.36-1.51-.53l-.44-.1c-.78-.16-1.34-.42-1.69-.75-.35-.34-.52-.81-.52-1.4,0-.72.25-1.28.77-1.67s1.24-.59,2.17-.59c.46,0,.9.03,1.31.1s.79.17,1.13.31h0Z"/>
  <path class="cls-16" d="M90.4,539.44h1.26v7.66h-1.26v-7.66M90.4,536.46h1.26v1.59h-1.26v-1.59h0Z"/>
  <path class="cls-16" d="M97.21,540.33c-.68,0-1.21.27-1.6.79s-.59,1.24-.59,2.16.19,1.64.58,2.17.93.79,1.61.79,1.2-.27,1.59-.79.59-1.25.59-2.16-.2-1.63-.59-2.15c-.39-.53-.92-.8-1.59-.8M97.21,539.26c1.09,0,1.96.36,2.58,1.07.62.71.94,1.7.94,2.95s-.31,2.24-.94,2.95c-.62.71-1.48,1.07-2.58,1.07s-1.96-.36-2.58-1.07c-.62-.72-.93-1.7-.93-2.95s.31-2.24.93-2.95c.62-.71,1.48-1.07,2.58-1.07h0Z"/>
  <path class="cls-16" d="M109.25,542.48v4.62h-1.26v-4.58c0-.72-.14-1.26-.42-1.63-.28-.36-.7-.54-1.27-.54-.68,0-1.22.22-1.61.65s-.59,1.03-.59,1.77v4.33h-1.26v-7.66h1.26v1.19c.3-.46.66-.81,1.06-1.03.41-.23.88-.34,1.42-.34.88,0,1.54.27,2,.82.45.54.68,1.34.68,2.4h0Z"/>
  <g class="cls-20">
    <line class="cls-12" x1="270.22" y1="533" x2="270.22" y2="1.5"/>
  </g>
  <path class="cls-16" d="M255.62,542.31c.29.1.58.31.86.64.28.33.57.78.85,1.35l1.4,2.79h-1.48l-1.31-2.62c-.33-.68-.66-1.13-.98-1.36-.31-.23-.75-.33-1.29-.33h-1.5v4.31h-1.38v-10.21h3.12c1.17,0,2.04.25,2.61.73s.86,1.22.86,2.21c0,.64-.15,1.18-.45,1.6-.29.42-.73.72-1.3.88M252.16,538.03v3.62h1.74c.66,0,1.17-.15,1.5-.46.34-.31.51-.77.51-1.36s-.17-1.05-.51-1.35c-.33-.31-.84-.46-1.5-.46h-1.74Z"/>
  <path class="cls-16" d="M266.39,542.96v.62h-5.78c.05.87.31,1.52.78,1.98.47.45,1.12.68,1.96.68.49,0,.95-.06,1.4-.18.46-.12.91-.29,1.35-.53v1.19c-.45.19-.92.33-1.39.44s-.96.15-1.44.15c-1.22,0-2.19-.36-2.91-1.07-.71-.71-1.07-1.67-1.07-2.88s.33-2.25,1.01-2.98c.68-.74,1.59-1.11,2.74-1.11,1.03,0,1.85.33,2.44,1,.6.66.9,1.56.9,2.7M265.13,542.59c0-.69-.21-1.24-.58-1.65s-.87-.62-1.49-.62c-.7,0-1.26.2-1.69.59-.42.4-.66.96-.72,1.67h4.48Z"/>
  <path class="cls-16" d="M273.99,539.74v1.18c-.36-.2-.71-.34-1.07-.44-.36-.1-.72-.15-1.08-.15-.81,0-1.45.26-1.9.78-.45.51-.68,1.24-.68,2.17s.23,1.66.68,2.18c.45.51,1.09.77,1.9.77.36,0,.72-.05,1.08-.14.36-.1.72-.25,1.07-.44v1.16c-.35.16-.72.29-1.09.37s-.77.12-1.2.12c-1.16,0-2.07-.36-2.75-1.09s-1.02-1.7-1.02-2.93.34-2.23,1.03-2.95c.69-.72,1.63-1.07,2.82-1.07.39,0,.77.04,1.13.12.37.08.72.2,1.07.36h0Z"/>
  <path class="cls-16" d="M279.64,543.25c-1.02,0-1.72.12-2.11.35s-.59.63-.59,1.19c0,.44.14.8.44,1.07.29.26.7.39,1.2.39.7,0,1.26-.25,1.67-.74.42-.5.64-1.16.64-1.98v-.28h-1.25M282.15,542.73v4.37h-1.26v-1.16c-.29.46-.64.81-1.07,1.03-.43.22-.95.33-1.57.33-.79,0-1.41-.22-1.87-.66-.46-.44-.69-1.03-.69-1.77,0-.86.29-1.51.86-1.95.58-.44,1.44-.66,2.58-.66h1.76v-.12c0-.58-.19-1.03-.57-1.34-.38-.32-.91-.48-1.6-.48-.44,0-.86.05-1.28.16s-.81.26-1.2.47v-1.16c.46-.18.91-.31,1.34-.4s.85-.14,1.26-.14c1.11,0,1.93.29,2.48.86.55.57.82,1.44.82,2.61h0Z"/>
  <polygon class="cls-16" points="284.56 536.46 285.82 536.46 285.82 547.1 284.56 547.1 284.56 536.46 284.56 536.46"/>
  <polygon class="cls-16" points="288.64 536.46 289.9 536.46 289.9 547.1 288.64 547.1 288.64 536.46 288.64 536.46"/>
  <g class="cls-15">
    <line class="cls-12" x1="461.24" y1="533" x2="461.24" y2="1.5"/>
  </g>
  <polygon class="cls-16" points="432.7 536.89 438.56 536.89 438.56 538.06 434.08 538.06 434.08 541.06 438.13 541.06 438.13 542.23 434.08 542.23 434.08 547.1 432.7 547.1 432.7 536.89 432.7 536.89"/>
  <polygon class="cls-16" points="441.22 545.94 443.48 545.94 443.48 538.15 441.02 538.64 441.02 537.39 443.46 536.89 444.84 536.89 444.84 545.94 447.1 545.94 447.1 547.1 441.22 547.1 441.22 545.94 441.22 545.94"/>
  <polygon class="cls-16" points="449.05 542.7 452.73 542.7 452.73 543.83 449.05 543.83 449.05 542.7 449.05 542.7"/>
  <path class="cls-16" d="M459.6,539.67v1.19c-.36-.18-.72-.32-1.11-.41s-.78-.14-1.19-.14c-.62,0-1.09.1-1.41.29-.31.19-.46.48-.46.86,0,.29.11.52.33.69.23.16.67.32,1.35.47l.43.1c.9.19,1.52.46,1.9.81s.57.83.57,1.46c0,.71-.28,1.27-.85,1.69-.56.42-1.33.62-2.32.62-.41,0-.84-.04-1.29-.12-.44-.08-.91-.2-1.4-.36v-1.3c.46.24.92.42,1.37.55.45.12.9.18,1.34.18.59,0,1.05-.1,1.37-.3.32-.21.48-.49.48-.86,0-.34-.12-.6-.35-.79-.23-.18-.73-.36-1.51-.53l-.44-.1c-.78-.16-1.34-.42-1.69-.75-.35-.34-.52-.81-.52-1.4,0-.72.25-1.28.77-1.67s1.24-.59,2.17-.59c.46,0,.9.03,1.31.1s.79.17,1.13.31h0Z"/>
  <path class="cls-16" d="M467.43,539.74v1.18c-.36-.2-.71-.34-1.07-.44-.36-.1-.72-.15-1.08-.15-.81,0-1.45.26-1.9.78-.45.51-.68,1.24-.68,2.17s.23,1.66.68,2.18c.45.51,1.09.77,1.9.77.36,0,.72-.05,1.08-.14.36-.1.72-.25,1.07-.44v1.16c-.35.16-.72.29-1.09.37s-.77.12-1.2.12c-1.16,0-2.07-.36-2.75-1.09s-1.02-1.7-1.02-2.93.34-2.23,1.03-2.95c.69-.72,1.63-1.07,2.82-1.07.39,0,.77.04,1.13.12.37.08.72.2,1.07.36h0Z"/>
  <path class="cls-16" d="M472.81,540.33c-.68,0-1.21.27-1.6.79s-.59,1.24-.59,2.16.19,1.64.58,2.17.93.79,1.61.79,1.2-.27,1.59-.79.59-1.25.59-2.16-.2-1.63-.59-2.15c-.39-.53-.92-.8-1.59-.8M472.81,539.26c1.09,0,1.96.36,2.58,1.07s.94,1.7.94,2.95-.31,2.24-.94,2.95c-.62.71-1.48,1.07-2.58,1.07s-1.96-.36-2.58-1.07c-.62-.72-.93-1.7-.93-2.95s.31-2.24.93-2.95,1.48-1.07,2.58-1.07h0Z"/>
  <path class="cls-16" d="M482.68,540.62c-.14-.08-.29-.14-.46-.18-.16-.04-.35-.06-.55-.06-.71,0-1.26.23-1.64.7-.38.46-.57,1.12-.57,1.99v4.03h-1.26v-7.66h1.26v1.19c.27-.46.61-.81,1.03-1.03s.94-.34,1.54-.34c.09,0,.18,0,.29.02.1,0,.22.03.35.05v1.29h0Z"/>
  <path class="cls-16" d="M490.31,542.96v.62h-5.78c.05.87.31,1.52.78,1.98.47.45,1.12.68,1.96.68.49,0,.95-.06,1.4-.18.46-.12.91-.29,1.35-.53v1.19c-.45.19-.92.33-1.39.44s-.96.15-1.44.15c-1.22,0-2.19-.36-2.91-1.07-.71-.71-1.07-1.67-1.07-2.88s.33-2.25,1.01-2.98c.68-.74,1.59-1.11,2.74-1.11,1.03,0,1.85.33,2.44,1,.6.66.9,1.56.9,2.7M489.05,542.59c0-.69-.21-1.24-.58-1.65s-.87-.62-1.49-.62c-.7,0-1.26.2-1.69.59-.42.4-.66.96-.72,1.67h4.48Z"/>
  <g class="cls-24">
    <line class="cls-12" x1="652.26" y1="533" x2="652.26" y2="1.5"/>
  </g>
  <path class="cls-16" d="M624.99,538.25l-1.87,5.08h3.75l-1.88-5.08M624.21,536.89h1.57l3.89,10.21h-1.44l-.93-2.62h-4.6l-.93,2.62h-1.46l3.9-10.21h0Z"/>
  <path class="cls-16" d="M636.39,539.74v1.18c-.36-.2-.71-.34-1.07-.44-.36-.1-.72-.15-1.08-.15-.81,0-1.45.26-1.9.78-.45.51-.68,1.24-.68,2.17s.23,1.66.68,2.18c.45.51,1.09.77,1.9.77.36,0,.72-.05,1.08-.14.36-.1.72-.25,1.07-.44v1.16c-.35.16-.72.29-1.09.37s-.77.12-1.2.12c-1.16,0-2.07-.36-2.75-1.09s-1.02-1.7-1.02-2.93.34-2.23,1.03-2.95c.69-.72,1.63-1.07,2.82-1.07.39,0,.77.04,1.13.12.37.08.72.2,1.07.36h0Z"/>
  <path class="cls-16" d="M644.07,539.74v1.18c-.36-.2-.71-.34-1.07-.44-.36-.1-.72-.15-1.08-.15-.81,0-1.45.26-1.9.78-.45.51-.68,1.24-.68,2.17s.23,1.66.68,2.18c.45.51,1.09.77,1.9.77.36,0,.72-.05,1.08-.14.36-.1.72-.25,1.07-.44v1.16c-.35.16-.72.29-1.09.37s-.77.12-1.2.12c-1.16,0-2.07-.36-2.75-1.09s-1.02-1.7-1.02-2.93.34-2.23,1.03-2.95c.69-.72,1.63-1.07,2.82-1.07.39,0,.77.04,1.13.12.37.08.72.2,1.07.36h0Z"/>
  <path class="cls-16" d="M646.11,544.08v-4.63h1.26v4.59c0,.72.14,1.27.42,1.63.28.36.7.54,1.27.54.68,0,1.22-.22,1.61-.65.4-.43.59-1.03.59-1.77v-4.34h1.26v7.66h-1.26v-1.18c-.31.46-.66.81-1.07,1.04-.4.23-.87.33-1.4.33-.88,0-1.54-.27-2-.82-.46-.55-.68-1.35-.68-2.4M649.28,539.26h0Z"/>
  <path class="cls-16" d="M659.56,540.62c-.14-.08-.29-.14-.46-.18-.16-.04-.35-.06-.55-.06-.71,0-1.26.23-1.64.7-.38.46-.57,1.12-.57,1.99v4.03h-1.26v-7.66h1.26v1.19c.27-.46.61-.81,1.03-1.03.42-.23.94-.34,1.54-.34.09,0,.18,0,.29.02.1,0,.22.03.35.05v1.29h0Z"/>
  <path class="cls-16" d="M664.36,543.25c-1.02,0-1.72.12-2.11.35s-.59.63-.59,1.19c0,.44.14.8.44,1.07.29.26.7.39,1.2.39.7,0,1.26-.25,1.67-.74.42-.5.64-1.16.64-1.98v-.28h-1.25M666.87,542.73v4.37h-1.26v-1.16c-.29.46-.64.81-1.07,1.03-.43.22-.95.33-1.57.33-.79,0-1.41-.22-1.87-.66-.46-.44-.69-1.03-.69-1.77,0-.86.29-1.51.86-1.95.58-.44,1.44-.66,2.58-.66h1.76v-.12c0-.58-.19-1.03-.57-1.34-.38-.32-.91-.48-1.6-.48-.44,0-.86.05-1.28.16s-.81.26-1.2.47v-1.16c.46-.18.91-.31,1.34-.4s.85-.14,1.26-.14c1.11,0,1.93.29,2.48.86s.82,1.44.82,2.61h0Z"/>
  <path class="cls-16" d="M675.03,539.74v1.18c-.36-.2-.71-.34-1.07-.44-.36-.1-.72-.15-1.08-.15-.81,0-1.45.26-1.9.78-.45.51-.68,1.24-.68,2.17s.23,1.66.68,2.18c.45.51,1.09.77,1.9.77.36,0,.72-.05,1.08-.14.36-.1.72-.25,1.07-.44v1.16c-.35.16-.72.29-1.09.37-.38.08-.77.12-1.2.12-1.16,0-2.07-.36-2.75-1.09s-1.02-1.7-1.02-2.93.34-2.23,1.03-2.95c.69-.72,1.63-1.07,2.82-1.07.39,0,.77.04,1.13.12.37.08.72.2,1.07.36h0Z"/>
  <path class="cls-16" d="M680.39,547.81c-.36.91-.7,1.5-1.04,1.78s-.79.42-1.35.42h-1v-1.05h.74c.35,0,.62-.08.81-.25s.4-.55.64-1.16l.23-.57-3.1-7.53h1.33l2.39,5.99,2.39-5.99h1.33l-3.36,8.37h0Z"/>
  <polygon class="cls-16" points="289.21 554.77 296.96 554.77 296.96 556.17 290.87 556.17 290.87 559.79 296.7 559.79 296.7 561.19 290.87 561.19 290.87 565.63 297.1 565.63 297.1 567.02 289.21 567.02 289.21 554.77 289.21 554.77"/>
  <polygon class="cls-16" points="298.62 557.83 300.22 557.83 303.1 565.54 305.97 557.83 307.57 557.83 304.12 567.02 302.07 567.02 298.62 557.83 298.62 557.83"/>
  <path class="cls-16" d="M313.72,562.4c-1.22,0-2.07.14-2.53.42-.47.28-.71.75-.71,1.43,0,.53.17.96.53,1.28.35.31.84.47,1.44.47.84,0,1.51-.3,2.01-.89.51-.6.76-1.39.76-2.37v-.34h-1.5M316.73,561.78v5.24h-1.51v-1.39c-.34.56-.77.97-1.29,1.24-.52.26-1.14.39-1.89.39-.94,0-1.69-.26-2.25-.79-.55-.53-.83-1.24-.83-2.12,0-1.03.34-1.81,1.03-2.34.7-.53,1.73-.79,3.1-.79h2.12v-.15c0-.7-.23-1.23-.69-1.61-.45-.39-1.09-.57-1.92-.57-.52,0-1.03.07-1.53.19s-.98.31-1.44.57v-1.39c.55-.21,1.09-.37,1.61-.48.52-.11,1.03-.16,1.52-.16,1.33,0,2.32.34,2.98,1.03.66.69.98,1.73.98,3.13h0Z"/>
  <polygon class="cls-16" points="319.87 554.26 321.38 554.26 321.38 567.02 319.87 567.02 319.87 554.26 319.87 554.26"/>
  <path class="cls-16" d="M324.27,563.39v-5.56h1.51v5.5c0,.87.17,1.53.51,1.96.34.43.84.65,1.53.65.81,0,1.46-.26,1.93-.78.48-.52.71-1.23.71-2.12v-5.21h1.51v9.19h-1.51v-1.41c-.37.56-.8.98-1.28,1.25-.48.27-1.04.4-1.68.4-1.06,0-1.85-.33-2.4-.98-.55-.66-.82-1.62-.82-2.88M328.07,557.61h0Z"/>
  <path class="cls-16" d="M339.4,562.4c-1.22,0-2.07.14-2.53.42-.47.28-.71.75-.71,1.43,0,.53.17.96.52,1.28.35.31.84.47,1.44.47.84,0,1.51-.3,2.01-.89.51-.6.76-1.39.76-2.37v-.34h-1.5M342.41,561.78v5.24h-1.51v-1.39c-.34.56-.77.97-1.29,1.24-.52.26-1.14.39-1.89.39-.94,0-1.69-.26-2.25-.79-.55-.53-.83-1.24-.83-2.12,0-1.03.34-1.81,1.03-2.34.7-.53,1.73-.79,3.1-.79h2.12v-.15c0-.7-.23-1.23-.69-1.61-.45-.39-1.09-.57-1.92-.57-.53,0-1.03.07-1.53.19s-.98.31-1.44.57v-1.39c.55-.21,1.09-.37,1.61-.48.52-.11,1.03-.16,1.52-.16,1.33,0,2.32.34,2.98,1.03.66.69.98,1.73.98,3.13h0Z"/>
  <path class="cls-16" d="M346.8,555.22v2.61h3.11v1.17h-3.11v4.99c0,.75.1,1.23.3,1.44s.62.32,1.26.32h1.55v1.26h-1.55c-1.16,0-1.97-.21-2.41-.65-.44-.43-.66-1.23-.66-2.38v-4.99h-1.11v-1.17h1.11v-2.61h1.52Z"/>
  <path class="cls-16" d="M352.03,557.83h1.51v9.19h-1.51v-9.19M352.03,554.26h1.51v1.91h-1.51v-1.91h0Z"/>
  <path class="cls-16" d="M360.15,558.89c-.81,0-1.45.32-1.92.95-.47.63-.71,1.49-.71,2.59s.23,1.97.7,2.6c.47.63,1.12.94,1.93.94s1.44-.32,1.91-.95c.47-.63.71-1.5.71-2.59s-.24-1.95-.71-2.58c-.47-.64-1.11-.96-1.91-.96M360.15,557.61c1.31,0,2.35.43,3.09,1.28.75.85,1.12,2.03,1.12,3.54s-.38,2.68-1.12,3.54c-.75.85-1.78,1.28-3.09,1.28s-2.35-.43-3.1-1.28c-.75-.86-1.12-2.04-1.12-3.54s.37-2.69,1.12-3.54c.75-.85,1.78-1.28,3.1-1.28h0Z"/>
  <path class="cls-16" d="M374.54,561.47v5.55h-1.51v-5.5c0-.87-.17-1.52-.51-1.95-.34-.43-.84-.65-1.53-.65-.81,0-1.46.26-1.93.78-.47.52-.71,1.23-.71,2.12v5.19h-1.52v-9.19h1.52v1.43c.36-.55.79-.97,1.27-1.24.49-.27,1.06-.41,1.7-.41,1.06,0,1.85.33,2.4.98.54.65.81,1.61.81,2.88h0Z"/>
  <path class="cls-16" d="M389.9,559.6c.38-.68.83-1.18,1.35-1.5.53-.32,1.14-.48,1.85-.48.96,0,1.7.34,2.21,1.01.52.66.78,1.62.78,2.85v5.55h-1.52v-5.5c0-.88-.16-1.53-.47-1.96-.31-.43-.79-.64-1.43-.64-.78,0-1.4.26-1.85.78-.45.52-.68,1.23-.68,2.12v5.19h-1.52v-5.5c0-.89-.16-1.54-.47-1.96-.31-.43-.8-.64-1.44-.64-.77,0-1.39.26-1.84.79-.45.52-.68,1.22-.68,2.12v5.19h-1.52v-9.19h1.52v1.43c.34-.57.75-.98,1.24-1.25s1.05-.4,1.71-.4,1.23.17,1.7.51c.47.34.82.83,1.04,1.48h0Z"/>
  <path class="cls-16" d="M406.93,562.05v.74h-6.94c.07,1.04.38,1.83.94,2.38.57.54,1.35.81,2.35.81.58,0,1.14-.07,1.68-.21.55-.14,1.09-.35,1.62-.64v1.43c-.54.23-1.1.4-1.67.52s-1.15.18-1.73.18c-1.47,0-2.62-.43-3.49-1.28-.85-.85-1.28-2.01-1.28-3.46s.4-2.7,1.21-3.58c.81-.89,1.91-1.33,3.29-1.33,1.24,0,2.21.4,2.93,1.2.72.8,1.08,1.87,1.08,3.24M405.42,561.61c0-.83-.25-1.48-.7-1.98s-1.04-.74-1.79-.74c-.84,0-1.52.24-2.03.71-.5.48-.8,1.15-.87,2.01h5.38Z"/>
  <path class="cls-16" d="M410.88,555.22v2.61h3.11v1.17h-3.11v4.99c0,.75.1,1.23.3,1.44s.62.32,1.26.32h1.55v1.26h-1.55c-1.16,0-1.97-.21-2.41-.65-.44-.43-.66-1.23-.66-2.38v-4.99h-1.11v-1.17h1.11v-2.61h1.52Z"/>
  <path class="cls-16" d="M421.43,559.24c-.17-.1-.35-.17-.56-.21-.2-.05-.42-.07-.66-.07-.85,0-1.51.28-1.97.84-.45.55-.68,1.35-.68,2.39v4.84h-1.52v-9.19h1.52v1.43c.32-.56.73-.97,1.24-1.24.51-.27,1.12-.41,1.85-.41.11,0,.22,0,.34.02.12,0,.26.03.42.06v1.55h0Z"/>
  <path class="cls-16" d="M422.83,557.83h1.51v9.19h-1.51v-9.19M422.83,554.26h1.51v1.91h-1.51v-1.91h0Z"/>
  <path class="cls-16" d="M434.24,558.19v1.41c-.43-.24-.85-.41-1.29-.52-.43-.12-.86-.18-1.3-.18-.98,0-1.74.31-2.28.94-.54.62-.81,1.48-.81,2.61s.27,1.99.81,2.62c.54.62,1.3.93,2.28.93.43,0,.87-.06,1.3-.17.43-.12.86-.3,1.29-.53v1.39c-.42.2-.86.34-1.31.44-.45.1-.93.15-1.44.15-1.39,0-2.49-.43-3.3-1.3-.81-.87-1.22-2.04-1.22-3.52s.41-2.67,1.23-3.54c.83-.86,1.95-1.29,3.39-1.29.47,0,.92.05,1.36.15.44.09.87.24,1.29.43h0Z"/>
  <path class="cls-16" d="M442.6,558.1v1.43c-.43-.22-.87-.39-1.33-.49-.46-.11-.94-.16-1.43-.16-.75,0-1.31.11-1.69.34-.37.23-.56.57-.56,1.03,0,.35.13.62.4.83.27.2.8.39,1.62.57l.52.11c1.07.23,1.83.56,2.28.98s.68,1,.68,1.75c0,.85-.34,1.53-1.02,2.03-.67.5-1.6.75-2.78.75-.49,0-1.01-.05-1.54-.15-.53-.09-1.09-.24-1.68-.43v-1.56c.56.29,1.11.51,1.65.66.54.14,1.07.21,1.61.21.71,0,1.26-.12,1.64-.36.39-.25.57-.59.57-1.03,0-.41-.14-.72-.42-.94-.27-.22-.88-.43-1.81-.63l-.52-.12c-.94-.2-1.61-.5-2.03-.9-.42-.41-.62-.97-.62-1.68,0-.86.3-1.53.92-2,.62-.47,1.48-.71,2.61-.71.56,0,1.08.04,1.57.12s.94.21,1.36.37h0Z"/>
  <g class="cls-21">
    <line class="cls-12" x1="50.55" y1="529.11" x2="680.91" y2="529.11"/>
  </g>
  <path class="cls-16" d="M30.86,534.17v-1.26c.35.16.7.29,1.05.38s.7.13,1.05.13c.91,0,1.61-.31,2.08-.92.49-.62.76-1.54.83-2.8-.27.39-.6.69-1,.9s-.85.31-1.35.31c-1.02,0-1.83-.31-2.43-.92-.59-.62-.89-1.46-.89-2.54s.31-1.89.93-2.52,1.44-.95,2.47-.95c1.18,0,2.08.45,2.7,1.36.62.9.94,2.21.94,3.94,0,1.61-.38,2.89-1.15,3.86-.76.96-1.78,1.44-3.08,1.44-.35,0-.7-.03-1.05-.1s-.72-.17-1.11-.31M33.61,529.84c.62,0,1.11-.21,1.47-.64s.55-1,.55-1.74-.18-1.31-.55-1.74c-.36-.43-.85-.64-1.47-.64s-1.11.21-1.48.64c-.36.42-.54,1-.54,1.74s.18,1.32.54,1.74.85.64,1.48.64h0Z"/>
  <path class="cls-16" d="M43.88,528.88c.66.14,1.18.44,1.54.88.38.44.56,1,.56,1.65,0,1-.35,1.78-1.04,2.34-.69.55-1.67.83-2.95.83-.43,0-.87-.04-1.33-.13-.45-.08-.92-.21-1.4-.38v-1.33c.38.23.8.39,1.26.51.46.12.93.17,1.43.17.87,0,1.52-.17,1.98-.51.46-.34.68-.84.68-1.49,0-.6-.21-1.07-.64-1.41-.42-.34-1-.51-1.76-.51h-1.19v-1.13h1.24c.68,0,1.2-.14,1.56-.4.36-.27.54-.66.54-1.18s-.18-.92-.56-1.2c-.37-.28-.9-.42-1.59-.42-.38,0-.79.04-1.22.12s-.91.21-1.43.38v-1.23c.53-.14,1.01-.25,1.47-.33.46-.08.9-.11,1.3-.11,1.05,0,1.88.24,2.49.72.61.47.92,1.11.92,1.93,0,.57-.16,1.05-.49,1.44-.32.39-.79.66-1.38.81h0Z"/>
  <g class="cls-26">
    <line class="cls-12" x1="50.55" y1="457.14" x2="680.91" y2="457.14"/>
  </g>
  <path class="cls-16" d="M30.86,462.17v-1.26c.35.16.7.29,1.05.38.36.09.7.13,1.05.13.91,0,1.61-.31,2.08-.92.49-.62.76-1.54.83-2.8-.27.39-.6.69-1,.9-.4.21-.85.31-1.35.31-1.02,0-1.83-.31-2.43-.92-.59-.62-.89-1.46-.89-2.54s.31-1.89.93-2.52,1.44-.95,2.47-.95c1.18,0,2.08.45,2.7,1.36.62.9.94,2.21.94,3.94,0,1.61-.38,2.89-1.15,3.86-.76.96-1.78,1.44-3.08,1.44-.35,0-.7-.03-1.05-.1-.36-.07-.72-.17-1.11-.31M33.61,457.84c.62,0,1.11-.21,1.47-.64.36-.42.55-1,.55-1.74s-.18-1.31-.55-1.74c-.36-.43-.85-.64-1.47-.64s-1.11.21-1.48.64c-.36.42-.54,1-.54,1.74s.18,1.32.54,1.74c.36.42.85.64,1.48.64h0Z"/>
  <path class="cls-16" d="M43.5,453.38l-3.49,5.45h3.49v-5.45M43.13,452.17h1.74v6.65h1.46v1.15h-1.46v2.41h-1.37v-2.41h-4.61v-1.33l4.25-6.47h0Z"/>
  <g class="cls-18">
    <line class="cls-12" x1="50.55" y1="385.17" x2="680.91" y2="385.17"/>
  </g>
  <path class="cls-16" d="M30.86,390.17v-1.26c.35.16.7.29,1.05.38.36.09.7.13,1.05.13.91,0,1.61-.31,2.08-.92.49-.62.76-1.54.83-2.8-.27.39-.6.69-1,.9-.4.21-.85.31-1.35.31-1.02,0-1.83-.31-2.43-.92-.59-.62-.89-1.46-.89-2.54s.31-1.89.93-2.52,1.44-.95,2.47-.95c1.18,0,2.08.45,2.7,1.36.62.9.94,2.21.94,3.94,0,1.61-.38,2.89-1.15,3.86-.76.96-1.78,1.44-3.08,1.44-.35,0-.7-.03-1.05-.1-.36-.07-.72-.17-1.11-.31M33.61,385.84c.62,0,1.11-.21,1.47-.64.36-.42.55-1,.55-1.74s-.18-1.31-.55-1.74c-.36-.43-.85-.64-1.47-.64s-1.11.21-1.48.64c-.36.42-.54,1-.54,1.74s.18,1.32.54,1.74c.36.42.85.64,1.48.64h0Z"/>
  <path class="cls-16" d="M39.71,380.17h5.42v1.16h-4.16v2.5c.2-.07.4-.12.6-.15.2-.03.4-.05.6-.05,1.14,0,2.04.31,2.71.94.66.62,1,1.47,1,2.54s-.34,1.96-1.03,2.56c-.68.61-1.65.91-2.89.91-.43,0-.87-.03-1.31-.11-.44-.08-.9-.18-1.37-.33v-1.39c.41.23.83.39,1.27.5.44.11.9.16,1.39.16.79,0,1.42-.21,1.87-.62.46-.42.69-.98.69-1.69s-.23-1.27-.69-1.69c-.46-.42-1.09-.62-1.87-.62-.37,0-.74.04-1.11.12-.36.08-.74.21-1.12.38v-5.13h0Z"/>
  <g class="cls-19">
    <line class="cls-12" x1="50.55" y1="313.2" x2="680.91" y2="313.2"/>
  </g>
  <path class="cls-16" d="M30.86,318.41v-1.26c.35.16.7.29,1.05.38s.7.13,1.05.13c.91,0,1.61-.31,2.08-.92.49-.62.76-1.54.83-2.8-.27.39-.6.69-1,.9s-.85.31-1.35.31c-1.02,0-1.83-.31-2.43-.92-.59-.62-.89-1.46-.89-2.54s.31-1.89.93-2.52,1.44-.95,2.47-.95c1.18,0,2.08.45,2.7,1.36.62.9.94,2.21.94,3.94,0,1.61-.38,2.89-1.15,3.86-.76.96-1.78,1.44-3.08,1.44-.35,0-.7-.03-1.05-.1s-.72-.17-1.11-.31M33.61,314.08c.62,0,1.11-.21,1.47-.64s.55-1,.55-1.74-.18-1.31-.55-1.74c-.36-.43-.85-.64-1.47-.64s-1.11.21-1.48.64c-.36.42-.54,1-.54,1.74s.18,1.32.54,1.74.85.64,1.48.64h0Z"/>
  <path class="cls-16" d="M42.83,312.97c-.62,0-1.11.21-1.48.64-.36.42-.54,1-.54,1.74s.18,1.31.54,1.74c.36.42.85.64,1.48.64s1.11-.21,1.47-.64c.36-.43.55-1.01.55-1.74s-.18-1.32-.55-1.74c-.36-.42-.85-.64-1.47-.64M45.57,308.64v1.26c-.35-.16-.7-.29-1.05-.38-.35-.09-.7-.13-1.05-.13-.91,0-1.61.31-2.09.92-.48.62-.75,1.54-.82,2.79.27-.4.61-.7,1.01-.91.4-.21.85-.32,1.34-.32,1.03,0,1.83.31,2.43.94s.9,1.46.9,2.54-.31,1.89-.93,2.52c-.62.64-1.44.95-2.47.95-1.18,0-2.08-.45-2.71-1.35-.62-.91-.94-2.22-.94-3.94,0-1.61.38-2.9,1.15-3.86.77-.96,1.79-1.44,3.08-1.44.35,0,.7.03,1.05.1.36.07.72.17,1.11.31h0Z"/>
  <g class="cls-25">
    <line class="cls-12" x1="50.55" y1="241.23" x2="680.91" y2="241.23"/>
  </g>
  <path class="cls-16" d="M30.86,246.41v-1.26c.35.16.7.29,1.05.38s.7.13,1.05.13c.91,0,1.61-.31,2.08-.92.49-.62.76-1.54.83-2.8-.27.39-.6.69-1,.9s-.85.31-1.35.31c-1.02,0-1.83-.31-2.43-.92-.59-.62-.89-1.46-.89-2.54s.31-1.89.93-2.52,1.44-.95,2.47-.95c1.18,0,2.08.45,2.7,1.36.62.9.94,2.21.94,3.94,0,1.61-.38,2.89-1.15,3.86-.76.96-1.78,1.44-3.08,1.44-.35,0-.7-.03-1.05-.1s-.72-.17-1.11-.31M33.61,242.08c.62,0,1.11-.21,1.47-.64s.55-1,.55-1.74-.18-1.31-.55-1.74c-.36-.43-.85-.64-1.47-.64s-1.11.21-1.48.64c-.36.42-.54,1-.54,1.74s.18,1.32.54,1.74.85.64,1.48.64h0Z"/>
  <polygon class="cls-16" points="39.35 236.41 45.92 236.41 45.92 237 42.21 246.62 40.77 246.62 44.25 237.58 39.35 237.58 39.35 236.41 39.35 236.41"/>
  <g class="cls-22">
    <line class="cls-12" x1="50.55" y1="169.26" x2="680.91" y2="169.26"/>
  </g>
  <path class="cls-16" d="M30.86,174.41v-1.26c.35.16.7.29,1.05.38s.7.13,1.05.13c.91,0,1.61-.31,2.08-.92.49-.62.76-1.54.83-2.8-.27.39-.6.69-1,.9s-.85.31-1.35.31c-1.02,0-1.83-.31-2.43-.92-.59-.62-.89-1.46-.89-2.54s.31-1.89.93-2.52,1.44-.95,2.47-.95c1.18,0,2.08.45,2.7,1.36.62.9.94,2.21.94,3.94,0,1.61-.38,2.89-1.15,3.86-.76.96-1.78,1.44-3.08,1.44-.35,0-.7-.03-1.05-.1s-.72-.17-1.11-.31M33.61,170.08c.62,0,1.11-.21,1.47-.64s.55-1,.55-1.74-.18-1.31-.55-1.74c-.36-.43-.85-.64-1.47-.64s-1.11.21-1.48.64c-.36.42-.54,1-.54,1.74s.18,1.32.54,1.74.85.64,1.48.64h0Z"/>
  <path class="cls-16" d="M42.65,169.77c-.66,0-1.18.18-1.55.53-.38.35-.56.83-.56,1.45s.18,1.1.56,1.45c.38.35.9.53,1.55.53s1.18-.18,1.55-.53c.38-.36.57-.84.57-1.45s-.19-1.1-.57-1.45c-.38-.35-.89-.53-1.55-.53M41.27,169.19c-.59-.14-1.05-.42-1.39-.83-.33-.4-.49-.9-.49-1.48,0-.81.29-1.46.87-1.93.58-.47,1.38-.71,2.39-.71s1.81.24,2.39.71c.58.47.87,1.12.87,1.93,0,.58-.16,1.08-.5,1.48-.33.4-.79.68-1.37.83.66.16,1.18.46,1.55.91.38.45.56,1,.56,1.65,0,.99-.3,1.75-.91,2.28-.6.53-1.46.79-2.59.79s-1.99-.27-2.6-.79c-.6-.53-.9-1.29-.9-2.28,0-.65.18-1.2.56-1.65.38-.45.9-.75,1.56-.91M40.77,167c0,.53.16.94.49,1.24.33.29.8.44,1.39.44s1.05-.15,1.39-.44c.33-.29.51-.71.51-1.24s-.17-.94-.51-1.24c-.33-.29-.79-.44-1.39-.44s-1.06.15-1.39.44c-.33.29-.49.71-.49,1.24h0Z"/>
  <g class="cls-27">
    <line class="cls-12" x1="50.55" y1="97.29" x2="680.91" y2="97.29"/>
  </g>
  <path class="cls-16" d="M30.86,102.41v-1.26c.35.16.7.29,1.05.38.36.09.7.13,1.05.13.91,0,1.61-.31,2.08-.92.49-.62.76-1.54.83-2.8-.27.39-.6.69-1,.9-.4.21-.85.31-1.35.31-1.02,0-1.83-.31-2.43-.92-.59-.62-.89-1.46-.89-2.54s.31-1.89.93-2.52,1.44-.95,2.47-.95c1.18,0,2.08.45,2.7,1.36.62.9.94,2.21.94,3.94,0,1.61-.38,2.89-1.15,3.86-.76.96-1.78,1.44-3.08,1.44-.35,0-.7-.03-1.05-.1-.36-.07-.72-.17-1.11-.31M33.61,98.08c.62,0,1.11-.21,1.47-.64.36-.42.55-1,.55-1.74s-.18-1.31-.55-1.74c-.36-.43-.85-.64-1.47-.64s-1.11.21-1.48.64c-.36.42-.54,1-.54,1.74s.18,1.32.54,1.74c.36.42.85.64,1.48.64h0Z"/>
  <path class="cls-16" d="M39.74,102.41v-1.26c.35.16.7.29,1.05.38.36.09.7.13,1.05.13.91,0,1.61-.31,2.08-.92.49-.62.76-1.54.83-2.8-.27.39-.6.69-1,.9-.4.21-.85.31-1.35.31-1.02,0-1.83-.31-2.43-.92-.59-.62-.89-1.46-.89-2.54s.31-1.89.93-2.52c.62-.64,1.44-.95,2.47-.95,1.18,0,2.08.45,2.7,1.36.62.9.94,2.21.94,3.94,0,1.61-.38,2.89-1.15,3.86-.76.96-1.78,1.44-3.08,1.44-.35,0-.7-.03-1.05-.1-.36-.07-.72-.17-1.11-.31M42.49,98.08c.62,0,1.11-.21,1.47-.64.36-.42.55-1,.55-1.74s-.18-1.31-.55-1.74c-.36-.43-.85-.64-1.47-.64s-1.11.21-1.48.64c-.36.42-.54,1-.54,1.74s.18,1.32.54,1.74c.36.42.85.64,1.48.64h0Z"/>
  <g class="cls-1">
    <line class="cls-12" x1="50.55" y1="25.33" x2="680.91" y2="25.33"/>
  </g>
  <polygon class="cls-16" points="22.18 29.46 24.44 29.46 24.44 21.67 21.98 22.16 21.98 20.91 24.42 20.41 25.8 20.41 25.8 29.46 28.06 29.46 28.06 30.62 22.18 30.62 22.18 29.46 22.18 29.46"/>
  <path class="cls-16" d="M33.77,21.32c-.71,0-1.24.35-1.61,1.05-.36.7-.53,1.75-.53,3.15s.18,2.45.53,3.15c.36.7.9,1.05,1.61,1.05s1.25-.35,1.61-1.05c.36-.7.54-1.75.54-3.15s-.18-2.45-.54-3.15c-.36-.7-.89-1.05-1.61-1.05M33.77,20.23c1.14,0,2.02.45,2.62,1.36.61.9.91,2.21.91,3.94s-.3,3.03-.91,3.94c-.6.9-1.48,1.35-2.62,1.35s-2.02-.45-2.62-1.35c-.6-.91-.9-2.22-.9-3.94s.3-3.04.9-3.94c.61-.91,1.48-1.36,2.62-1.36h0Z"/>
  <path class="cls-16" d="M42.65,21.32c-.71,0-1.24.35-1.61,1.05-.36.7-.53,1.75-.53,3.15s.18,2.45.53,3.15c.36.7.9,1.05,1.61,1.05s1.25-.35,1.61-1.05c.36-.7.54-1.75.54-3.15s-.18-2.45-.54-3.15c-.36-.7-.89-1.05-1.61-1.05M42.65,20.23c1.14,0,2.02.45,2.62,1.36.61.9.91,2.21.91,3.94s-.3,3.03-.91,3.94c-.6.9-1.48,1.35-2.62,1.35s-2.02-.45-2.62-1.35c-.6-.91-.9-2.22-.9-3.94s.3-3.04.9-3.94c.61-.91,1.48-1.36,2.62-1.36h0Z"/>
  <polygon class="cls-16" points="12.76 302.53 .52 307.21 .52 305.48 10.83 301.6 .52 297.71 .52 295.99 12.76 300.65 12.76 302.53 12.76 302.53"/>
  <path class="cls-16" d="M8.15,291.5c0,1.22.14,2.07.42,2.53s.75.71,1.43.71c.53,0,.96-.17,1.28-.52.31-.35.47-.84.47-1.44,0-.84-.3-1.51-.89-2.01-.6-.51-1.39-.76-2.37-.76h-.34v1.5M7.52,288.49h5.24v1.51h-1.39c.56.34.97.77,1.24,1.29.26.52.39,1.14.39,1.89,0,.94-.26,1.69-.79,2.25-.53.55-1.24.83-2.12.83-1.03,0-1.81-.34-2.34-1.03-.52-.7-.79-1.73-.79-3.1v-2.12h-.15c-.7,0-1.23.23-1.61.69-.39.45-.57,1.09-.57,1.92,0,.52.07,1.03.19,1.53.12.5.31.98.57,1.44h-1.39c-.21-.55-.37-1.09-.48-1.61-.11-.52-.16-1.03-.16-1.52,0-1.33.34-2.32,1.03-2.98s1.73-.98,3.13-.98h0Z"/>
  <polygon class="cls-16" points="0 285.36 0 283.85 12.76 283.85 12.76 285.36 0 285.36 0 285.36"/>
  <path class="cls-16" d="M9.14,280.95H3.58v-1.51h5.5c.87,0,1.53-.17,1.96-.51.43-.34.65-.84.65-1.53,0-.81-.26-1.46-.78-1.93-.52-.48-1.23-.71-2.12-.71H3.58v-1.51h9.19v1.51h-1.41c.56.37.98.8,1.25,1.28.27.48.4,1.04.4,1.68,0,1.06-.33,1.85-.98,2.4-.66.55-1.62.82-2.88.82M3.36,277.15h0Z"/>
  <path class="cls-16" d="M7.79,262.14h.74v6.94c1.04-.07,1.83-.38,2.38-.94.54-.57.81-1.35.81-2.35,0-.58-.07-1.14-.21-1.68-.14-.55-.35-1.09-.64-1.62h1.43c.23.54.4,1.1.52,1.67s.18,1.15.18,1.73c0,1.47-.43,2.62-1.28,3.49-.85.85-2.01,1.28-3.46,1.28s-2.7-.4-3.58-1.21c-.89-.81-1.33-1.91-1.33-3.29,0-1.24.4-2.21,1.2-2.93.8-.72,1.87-1.08,3.24-1.08M7.35,263.65c-.83,0-1.48.25-1.98.7s-.74,1.04-.74,1.79c0,.84.24,1.52.71,2.03.48.5,1.15.8,2.01.87v-5.38h0Z"/>
  <path class="cls-16" d="M.02,250.77c1.26.73,2.5,1.28,3.73,1.63,1.23.35,2.48.53,3.74.53s2.52-.18,3.76-.53c1.24-.36,2.48-.9,3.73-1.63v1.31c-1.29.82-2.55,1.44-3.79,1.85-1.24.4-2.48.61-3.7.61s-2.44-.21-3.68-.61-2.5-1.02-3.79-1.85v-1.31H.02Z"/>
  <path class="cls-16" d="M7.37,237.29c0,.48.21.85.61,1.12.4.27.97.4,1.69.4s1.27-.13,1.68-.4c.4-.27.61-.65.61-1.12s-.21-.83-.61-1.1c-.41-.27-.97-.41-1.68-.41s-1.28.14-1.68.41c-.41.27-.62.63-.62,1.1M6.33,237.29c0-.86.3-1.55.9-2.06.6-.51,1.41-.76,2.44-.76s1.84.25,2.44.77c.6.51.89,1.19.89,2.05s-.3,1.57-.89,2.08c-.6.51-1.41.76-2.44.76s-1.84-.25-2.44-.76c-.6-.52-.9-1.21-.9-2.08M1.34,245.75c0,.47.21.84.62,1.12.4.27.96.4,1.67.4s1.29-.13,1.69-.4c.4-.27.61-.64.61-1.12s-.21-.84-.61-1.12c-.4-.27-.97-.41-1.69-.41s-1.26.14-1.67.41c-.41.27-.62.65-.62,1.12M.3,238.34v-1.31l12.71,7.66v1.31l-12.71-7.66M.3,245.75c0-.86.3-1.55.9-2.07.6-.52,1.4-.77,2.43-.77s1.85.25,2.44.77c.6.51.89,1.2.89,2.07s-.3,1.56-.89,2.07c-.6.5-1.42.75-2.44.75s-1.83-.25-2.43-.76c-.6-.51-.9-1.2-.9-2.06H.3Z"/>
  <path class="cls-16" d="M.02,232.31v-1.31c1.29-.82,2.55-1.44,3.79-1.84,1.24-.41,2.46-.62,3.68-.62s2.46.21,3.7.62c1.24.4,2.5,1.02,3.79,1.84v1.31c-1.26-.73-2.49-1.27-3.73-1.62-1.24-.36-2.49-.54-3.76-.54s-2.51.18-3.74.54c-1.23.35-2.48.89-3.73,1.62H.02Z"/>
  <polyline class="cls-9" points="79.2 26.82 270.22 25.66 461.24 26.24 652.26 25.87"/>
  <path class="cls-17" d="M79.2,32.82c1.59,0,3.12-.63,4.24-1.76,1.13-1.13,1.76-2.65,1.76-4.24s-.63-3.12-1.76-4.24c-1.13-1.13-2.65-1.76-4.24-1.76s-3.12.63-4.24,1.76c-1.13,1.13-1.76,2.65-1.76,4.24s.63,3.12,1.76,4.24c1.13,1.13,2.65,1.76,4.24,1.76h0Z"/>
  <path class="cls-17" d="M270.22,31.66c1.59,0,3.12-.63,4.24-1.76,1.13-1.13,1.76-2.65,1.76-4.24s-.63-3.12-1.76-4.24c-1.13-1.13-2.65-1.76-4.24-1.76s-3.12.63-4.24,1.76c-1.13,1.13-1.76,2.65-1.76,4.24s.63,3.12,1.76,4.24c1.13,1.13,2.65,1.76,4.24,1.76h0Z"/>
  <path class="cls-17" d="M461.24,32.24c1.59,0,3.12-.63,4.24-1.76,1.13-1.13,1.76-2.65,1.76-4.24s-.63-3.12-1.76-4.24c-1.13-1.13-2.65-1.76-4.24-1.76s-3.12.63-4.24,1.76c-1.13,1.13-1.76,2.65-1.76,4.24s.63,3.12,1.76,4.24c1.13,1.13,2.65,1.76,4.24,1.76h0Z"/>
  <path class="cls-17" d="M652.26,31.87c1.59,0,3.12-.63,4.24-1.76,1.13-1.13,1.76-2.65,1.76-4.24s-.63-3.12-1.76-4.24c-1.13-1.13-2.65-1.76-4.24-1.76s-3.12.63-4.24,1.76c-1.13,1.13-1.76,2.65-1.76,4.24s.63,3.12,1.76,4.24c1.13,1.13,2.65,1.76,4.24,1.76h0Z"/>
  <polyline class="cls-8" points="79.2 170.25 270.22 58.93 461.24 116.11 652.26 78.78"/>
  <polygon class="cls-3" points="73.2 170.25 85.2 176.25 85.2 164.25 73.2 170.25"/>
  <polygon class="cls-3" points="264.22 58.92 276.22 64.92 276.22 52.93 264.22 58.92"/>
  <polygon class="cls-3" points="455.24 116.11 467.24 122.11 467.24 110.11 455.24 116.11"/>
  <polygon class="cls-3" points="646.26 78.78 658.26 84.78 658.26 72.78 646.26 78.78"/>
  <polyline class="cls-14" points="79.2 302.4 270.22 87.95 461.24 200.91 652.26 127.38"/>
  <rect class="cls-5" x="73.2" y="296.4" width="12" height="12"/>
  <rect class="cls-5" x="264.22" y="81.95" width="12" height="12"/>
  <rect class="cls-5" x="455.24" y="194.91" width="12" height="12"/>
  <rect class="cls-5" x="646.26" y="121.38" width="12" height="12"/>
  <polyline class="cls-10" points="79.2 414.4 270.22 113.14 461.24 275.2 652.26 168.49"/>
  <polygon class="cls-4" points="79.2 408.4 73.5 412.55 75.68 419.26 82.73 419.26 84.91 412.55 79.2 408.4"/>
  <polygon class="cls-4" points="270.22 107.14 264.51 111.28 266.69 117.99 273.75 117.99 275.93 111.28 270.22 107.14"/>
  <polygon class="cls-4" points="461.24 269.2 455.53 273.35 457.71 280.06 464.76 280.06 466.94 273.35 461.24 269.2"/>
  <polygon class="cls-4" points="652.26 162.49 646.55 166.63 648.73 173.34 655.78 173.34 657.96 166.63 652.26 162.49"/>
  <polyline class="cls-13" points="79.2 508.84 270.22 132.44 461.24 338.58 652.26 201.95"/>
  <polygon class="cls-6" points="79.2 502.84 74.01 505.84 74.01 511.84 79.2 514.84 84.4 511.84 84.4 505.84 79.2 502.84"/>
  <polygon class="cls-6" points="270.22 126.44 265.02 129.44 265.02 135.44 270.22 138.44 275.42 135.44 275.42 129.44 270.22 126.44"/>
  <polygon class="cls-6" points="461.24 332.58 456.04 335.58 456.04 341.58 461.24 344.58 466.43 341.58 466.43 335.58 461.24 332.58"/>
  <polygon class="cls-6" points="652.26 195.95 647.06 198.95 647.06 204.95 652.26 207.95 657.45 204.95 657.45 198.95 652.26 195.95"/>
  <path class="cls-2" d="M50.55,533V1.5M680.91,533V1.5M50.55,533h630.36M50.55,1.5h630.36"/>
  <path class="cls-7" d="M477.82,526h193.28c1.87,0,2.8-.93,2.8-2.8v-101.33c0-1.87-.93-2.8-2.8-2.8h-193.28c-1.87,0-2.8.93-2.8,2.8v101.33c0,1.87.93,2.8,2.8,2.8h0Z"/>
  <polyline class="cls-9" points="480.62 430.41 494.62 430.41 508.62 430.41"/>
  <path class="cls-17" d="M494.63,436.41c1.59,0,3.12-.63,4.24-1.76,1.13-1.13,1.76-2.65,1.76-4.24s-.63-3.12-1.76-4.24c-1.13-1.13-2.65-1.76-4.24-1.76s-3.12.63-4.24,1.76c-1.13,1.13-1.76,2.65-1.76,4.24s.63,3.12,1.76,4.24c1.13,1.13,2.65,1.76,4.24,1.76h0Z"/>
  <polygon class="cls-16" points="521.26 425.05 522.64 425.05 522.64 435.26 521.26 435.26 521.26 425.05 521.26 425.05"/>
  <path class="cls-16" d="M531.65,430.64v4.62h-1.26v-4.58c0-.72-.14-1.26-.42-1.63-.28-.36-.7-.54-1.27-.54-.68,0-1.22.22-1.61.65s-.59,1.03-.59,1.77v4.33h-1.26v-7.66h1.26v1.19c.3-.46.66-.81,1.06-1.03.41-.23.88-.34,1.42-.34.88,0,1.54.27,2,.82.45.54.68,1.34.68,2.4h0Z"/>
  <path class="cls-16" d="M534.16,427.6h1.26v7.79c0,.98-.18,1.68-.56,2.12-.37.44-.96.66-1.79.66h-.48v-1.07h.33c.48,0,.81-.11.98-.33.17-.22.26-.68.26-1.37v-7.79M534.16,424.62h1.26v1.59h-1.26v-1.59h0Z"/>
  <path class="cls-16" d="M544.55,431.12v.62h-5.78c.05.87.31,1.52.78,1.98.47.45,1.12.68,1.96.68.49,0,.95-.06,1.4-.18.46-.12.91-.29,1.35-.53v1.19c-.45.19-.92.33-1.39.44s-.96.15-1.44.15c-1.22,0-2.19-.36-2.91-1.07-.71-.71-1.07-1.67-1.07-2.88s.33-2.25,1.01-2.98c.68-.74,1.59-1.11,2.74-1.11,1.03,0,1.85.33,2.44,1,.6.66.9,1.56.9,2.7M543.29,430.75c0-.69-.21-1.24-.58-1.65s-.87-.62-1.49-.62c-.7,0-1.26.2-1.69.59-.42.4-.66.96-.72,1.67h4.48Z"/>
  <path class="cls-16" d="M552.15,427.9v1.18c-.36-.2-.71-.34-1.07-.44-.36-.1-.72-.15-1.08-.15-.81,0-1.45.26-1.9.78-.45.51-.68,1.24-.68,2.17s.23,1.66.68,2.18c.45.51,1.09.77,1.9.77.36,0,.72-.05,1.08-.14.36-.1.72-.25,1.07-.44v1.16c-.35.16-.72.29-1.09.37s-.77.12-1.2.12c-1.16,0-2.07-.36-2.75-1.09-.68-.72-1.02-1.7-1.02-2.93s.34-2.23,1.03-2.95c.69-.72,1.63-1.07,2.82-1.07.39,0,.77.04,1.13.12.37.08.72.2,1.07.36h0Z"/>
  <path class="cls-16" d="M555.57,425.43v2.17h2.59v.98h-2.59v4.16c0,.62.08,1.03.25,1.2.17.18.52.27,1.05.27h1.29v1.05h-1.29c-.97,0-1.64-.18-2.01-.54-.37-.36-.55-1.03-.55-1.98v-4.16h-.92v-.98h.92v-2.17h1.26Z"/>
  <path class="cls-16" d="M559.84,427.6h1.26v7.66h-1.26v-7.66M559.84,424.62h1.26v1.59h-1.26v-1.59h0Z"/>
  <path class="cls-16" d="M566.65,428.49c-.68,0-1.21.27-1.6.79-.39.53-.59,1.24-.59,2.16s.19,1.64.58,2.17c.39.53.93.79,1.61.79s1.2-.27,1.59-.79c.39-.53.59-1.25.59-2.16s-.2-1.63-.59-2.15c-.39-.53-.92-.8-1.59-.8M566.65,427.42c1.09,0,1.96.36,2.58,1.07.62.71.94,1.7.94,2.95s-.31,2.24-.94,2.95c-.62.71-1.48,1.07-2.58,1.07s-1.96-.36-2.58-1.07c-.62-.72-.93-1.7-.93-2.95s.31-2.24.93-2.95c.62-.71,1.48-1.07,2.58-1.07h0Z"/>
  <path class="cls-16" d="M578.69,430.64v4.62h-1.26v-4.58c0-.72-.14-1.26-.42-1.63-.28-.36-.7-.54-1.27-.54-.68,0-1.22.22-1.61.65s-.59,1.03-.59,1.77v4.33h-1.26v-7.66h1.26v1.19c.3-.46.66-.81,1.06-1.03.41-.23.88-.34,1.42-.34.88,0,1.54.27,2,.82.45.54.68,1.34.68,2.4h0Z"/>
  <path class="cls-16" d="M589.96,428.78c-.14-.08-.29-.14-.46-.18-.16-.04-.35-.06-.55-.06-.71,0-1.26.23-1.64.7-.38.46-.57,1.12-.57,1.99v4.03h-1.26v-7.66h1.26v1.19c.27-.46.61-.81,1.03-1.03s.94-.34,1.54-.34c.09,0,.18,0,.29.02.1,0,.22.03.35.05v1.29h0Z"/>
  <path class="cls-16" d="M594.76,431.41c-1.02,0-1.72.12-2.11.35-.39.23-.59.63-.59,1.19,0,.44.14.8.44,1.07.29.26.7.39,1.2.39.7,0,1.26-.25,1.67-.74.42-.5.64-1.16.64-1.98v-.28h-1.25M597.27,430.89v4.37h-1.26v-1.16c-.29.46-.64.81-1.07,1.03-.43.22-.95.33-1.57.33-.79,0-1.41-.22-1.87-.66-.46-.44-.69-1.03-.69-1.77,0-.86.29-1.51.86-1.95.58-.44,1.44-.66,2.58-.66h1.76v-.12c0-.58-.19-1.03-.57-1.34-.38-.32-.91-.48-1.6-.48-.44,0-.86.05-1.28.16-.42.1-.81.26-1.2.47v-1.16c.46-.18.91-.31,1.34-.4.43-.09.85-.14,1.26-.14,1.11,0,1.93.29,2.48.86.55.57.82,1.44.82,2.61h0Z"/>
  <path class="cls-16" d="M601.17,425.43v2.17h2.59v.98h-2.59v4.16c0,.62.08,1.03.25,1.2.17.18.52.27,1.05.27h1.29v1.05h-1.29c-.97,0-1.64-.18-2.01-.54-.37-.36-.55-1.03-.55-1.98v-4.16h-.92v-.98h.92v-2.17h1.26Z"/>
  <path class="cls-16" d="M605.44,427.6h1.26v7.66h-1.26v-7.66M605.44,424.62h1.26v1.59h-1.26v-1.59h0Z"/>
  <path class="cls-16" d="M612.25,428.49c-.68,0-1.21.27-1.6.79-.39.53-.59,1.24-.59,2.16s.19,1.64.58,2.17c.39.53.93.79,1.61.79s1.2-.27,1.59-.79c.39-.53.59-1.25.59-2.16s-.2-1.63-.59-2.15c-.39-.53-.92-.8-1.59-.8M612.25,427.42c1.09,0,1.96.36,2.58,1.07.62.71.94,1.7.94,2.95s-.31,2.24-.94,2.95c-.62.71-1.48,1.07-2.58,1.07s-1.96-.36-2.58-1.07c-.62-.72-.93-1.7-.93-2.95s.31-2.24.93-2.95c.62-.71,1.48-1.07,2.58-1.07h0Z"/>
  <path class="cls-16" d="M622.41,428.9h8.76v1.15h-8.76v-1.15M622.41,431.69h8.76v1.16h-8.76v-1.16h0Z"/>
  <path class="cls-16" d="M641.69,425.96c-.71,0-1.24.35-1.61,1.05-.36.7-.53,1.75-.53,3.15s.18,2.45.53,3.15c.36.7.9,1.05,1.61,1.05s1.25-.35,1.61-1.05c.36-.7.54-1.75.54-3.15s-.18-2.45-.54-3.15c-.36-.7-.89-1.05-1.61-1.05M641.69,424.87c1.14,0,2.02.45,2.62,1.36.61.9.91,2.21.91,3.94s-.3,3.03-.91,3.94c-.6.9-1.48,1.35-2.62,1.35s-2.02-.45-2.62-1.35c-.6-.91-.9-2.22-.9-3.94s.3-3.04.9-3.94c.61-.91,1.48-1.36,2.62-1.36h0Z"/>
  <path class="cls-16" d="M656.3,430.77c-.4,0-.71.17-.94.51-.23.33-.33.81-.33,1.41s.11,1.06.33,1.4c.23.33.54.51.94.51s.69-.17.92-.51c.23-.34.34-.81.34-1.4s-.12-1.07-.34-1.4c-.23-.34-.53-.51-.92-.51M656.3,429.9c.72,0,1.29.25,1.72.75.42.5.64,1.18.64,2.03s-.21,1.53-.64,2.03c-.42.5-.99.75-1.71.75s-1.31-.25-1.73-.75c-.42-.5-.64-1.18-.64-2.03s.21-1.53.64-2.03c.43-.5,1-.75,1.73-.75M649.25,425.74c-.39,0-.7.17-.93.51-.23.33-.33.8-.33,1.39s.11,1.07.33,1.41c.23.33.53.51.93.51s.7-.17.93-.51c.23-.33.34-.81.34-1.41s-.12-1.05-.34-1.39c-.23-.34-.54-.51-.93-.51M655.42,424.87h1.09l-6.38,10.59h-1.09l6.38-10.59M649.25,424.87c.72,0,1.29.25,1.72.75.43.5.64,1.17.64,2.02s-.21,1.54-.64,2.04c-.42.5-1,.75-1.72.75s-1.3-.25-1.72-.75c-.42-.5-.63-1.18-.63-2.04s.21-1.52.64-2.02c.42-.5,1-.75,1.72-.75h0Z"/>
  <polyline class="cls-8" points="480.62 450.95 494.62 450.95 508.62 450.95"/>
  <polygon class="cls-3" points="488.63 450.95 500.63 456.95 500.63 444.95 488.63 450.95"/>
  <polygon class="cls-16" points="521.26 445.69 522.64 445.69 522.64 455.9 521.26 455.9 521.26 445.69 521.26 445.69"/>
  <path class="cls-16" d="M531.65,451.28v4.62h-1.26v-4.58c0-.72-.14-1.26-.42-1.63s-.7-.54-1.27-.54c-.68,0-1.22.22-1.61.65s-.59,1.03-.59,1.77v4.33h-1.26v-7.66h1.26v1.19c.3-.46.66-.81,1.06-1.03.41-.23.88-.34,1.42-.34.88,0,1.54.27,2,.82.45.54.68,1.34.68,2.4h0Z"/>
  <path class="cls-16" d="M534.16,448.24h1.26v7.79c0,.98-.18,1.68-.56,2.12-.37.44-.96.66-1.79.66h-.48v-1.07h.33c.48,0,.81-.11.98-.33.17-.22.26-.68.26-1.37v-7.79M534.16,445.26h1.26v1.59h-1.26v-1.59h0Z"/>
  <path class="cls-16" d="M544.55,451.76v.62h-5.78c.05.87.31,1.52.78,1.98.47.45,1.12.68,1.96.68.49,0,.95-.06,1.4-.18.46-.12.91-.29,1.35-.53v1.19c-.45.19-.92.33-1.39.44s-.96.15-1.44.15c-1.22,0-2.19-.36-2.91-1.07-.71-.71-1.07-1.67-1.07-2.88s.33-2.25,1.01-2.98c.68-.74,1.59-1.11,2.74-1.11,1.03,0,1.85.33,2.44,1,.6.66.9,1.56.9,2.7M543.29,451.39c0-.69-.21-1.24-.58-1.65s-.87-.62-1.49-.62c-.7,0-1.26.2-1.69.59-.42.4-.66.96-.72,1.67h4.48Z"/>
  <path class="cls-16" d="M552.15,448.54v1.18c-.36-.2-.71-.34-1.07-.44-.36-.1-.72-.15-1.08-.15-.81,0-1.45.26-1.9.78-.45.51-.68,1.24-.68,2.17s.23,1.66.68,2.18c.45.51,1.09.77,1.9.77.36,0,.72-.05,1.08-.14.36-.1.72-.25,1.07-.44v1.16c-.35.16-.72.29-1.09.37s-.77.12-1.2.12c-1.16,0-2.07-.36-2.75-1.09s-1.02-1.7-1.02-2.93.34-2.23,1.03-2.95c.69-.72,1.63-1.07,2.82-1.07.39,0,.77.04,1.13.12.37.08.72.2,1.07.36h0Z"/>
  <path class="cls-16" d="M555.57,446.07v2.17h2.59v.98h-2.59v4.16c0,.62.08,1.03.25,1.2s.52.27,1.05.27h1.29v1.05h-1.29c-.97,0-1.64-.18-2.01-.54s-.55-1.03-.55-1.98v-4.16h-.92v-.98h.92v-2.17h1.26Z"/>
  <path class="cls-16" d="M559.84,448.24h1.26v7.66h-1.26v-7.66M559.84,445.26h1.26v1.59h-1.26v-1.59h0Z"/>
  <path class="cls-16" d="M566.65,449.13c-.68,0-1.21.27-1.6.79s-.59,1.24-.59,2.16.19,1.64.58,2.17.93.79,1.61.79,1.2-.27,1.59-.79.59-1.25.59-2.16-.2-1.63-.59-2.15c-.39-.53-.92-.8-1.59-.8M566.65,448.06c1.09,0,1.96.36,2.58,1.07s.94,1.7.94,2.95-.31,2.24-.94,2.95c-.62.71-1.48,1.07-2.58,1.07s-1.96-.36-2.58-1.07c-.62-.72-.93-1.7-.93-2.95s.31-2.24.93-2.95,1.48-1.07,2.58-1.07h0Z"/>
  <path class="cls-16" d="M578.69,451.28v4.62h-1.26v-4.58c0-.72-.14-1.26-.42-1.63s-.7-.54-1.27-.54c-.68,0-1.22.22-1.61.65s-.59,1.03-.59,1.77v4.33h-1.26v-7.66h1.26v1.19c.3-.46.66-.81,1.06-1.03.41-.23.88-.34,1.42-.34.88,0,1.54.27,2,.82.45.54.68,1.34.68,2.4h0Z"/>
  <path class="cls-16" d="M589.96,449.42c-.14-.08-.29-.14-.46-.18-.16-.04-.35-.06-.55-.06-.71,0-1.26.23-1.64.7-.38.46-.57,1.12-.57,1.99v4.03h-1.26v-7.66h1.26v1.19c.27-.46.61-.81,1.03-1.03s.94-.34,1.54-.34c.09,0,.18,0,.29.02.1,0,.22.03.35.05v1.29h0Z"/>
  <path class="cls-16" d="M594.76,452.05c-1.02,0-1.72.12-2.11.35s-.59.63-.59,1.19c0,.44.14.8.44,1.07.29.26.7.39,1.2.39.7,0,1.26-.25,1.67-.74.42-.5.64-1.16.64-1.98v-.28h-1.25M597.27,451.53v4.37h-1.26v-1.16c-.29.46-.64.81-1.07,1.03-.43.22-.95.33-1.57.33-.79,0-1.41-.22-1.87-.66-.46-.44-.69-1.03-.69-1.77,0-.86.29-1.51.86-1.95.58-.44,1.44-.66,2.58-.66h1.76v-.12c0-.58-.19-1.03-.57-1.34-.38-.32-.91-.48-1.6-.48-.44,0-.86.05-1.28.16-.42.1-.81.26-1.2.47v-1.16c.46-.18.91-.31,1.34-.4s.85-.14,1.26-.14c1.11,0,1.93.29,2.48.86.55.57.82,1.44.82,2.61h0Z"/>
  <path class="cls-16" d="M601.17,446.07v2.17h2.59v.98h-2.59v4.16c0,.62.08,1.03.25,1.2s.52.27,1.05.27h1.29v1.05h-1.29c-.97,0-1.64-.18-2.01-.54s-.55-1.03-.55-1.98v-4.16h-.92v-.98h.92v-2.17h1.26Z"/>
  <path class="cls-16" d="M605.44,448.24h1.26v7.66h-1.26v-7.66M605.44,445.26h1.26v1.59h-1.26v-1.59h0Z"/>
  <path class="cls-16" d="M612.25,449.13c-.68,0-1.21.27-1.6.79s-.59,1.24-.59,2.16.19,1.64.58,2.17.93.79,1.61.79,1.2-.27,1.59-.79.59-1.25.59-2.16-.2-1.63-.59-2.15c-.39-.53-.92-.8-1.59-.8M612.25,448.06c1.09,0,1.96.36,2.58,1.07s.94,1.7.94,2.95-.31,2.24-.94,2.95c-.62.71-1.48,1.07-2.58,1.07s-1.96-.36-2.58-1.07c-.62-.72-.93-1.7-.93-2.95s.31-2.24.93-2.95,1.48-1.07,2.58-1.07h0Z"/>
  <path class="cls-16" d="M622.41,449.54h8.76v1.15h-8.76v-1.15M622.41,452.33h8.76v1.16h-8.76v-1.16h0Z"/>
  <path class="cls-16" d="M638.75,445.69h5.42v1.16h-4.16v2.5c.2-.07.4-.12.6-.15s.4-.05.6-.05c1.14,0,2.04.31,2.71.94s1,1.47,1,2.54-.34,1.96-1.03,2.56-1.65.91-2.89.91c-.43,0-.87-.03-1.31-.11s-.9-.18-1.37-.33v-1.39c.41.23.83.39,1.27.5s.9.16,1.39.16c.79,0,1.42-.21,1.87-.62s.69-.98.69-1.69-.23-1.27-.69-1.69-1.09-.62-1.87-.62c-.37,0-.74.04-1.11.12-.36.08-.74.21-1.12.38v-5.13h0Z"/>
  <path class="cls-16" d="M656.3,451.41c-.4,0-.71.17-.94.51s-.33.81-.33,1.41.11,1.06.33,1.4c.23.33.54.51.94.51s.69-.17.92-.51c.23-.34.34-.81.34-1.4s-.12-1.07-.34-1.4c-.23-.34-.53-.51-.92-.51M656.3,450.54c.72,0,1.29.25,1.72.75s.64,1.18.64,2.03-.21,1.53-.64,2.03c-.42.5-.99.75-1.71.75s-1.31-.25-1.73-.75-.64-1.18-.64-2.03.21-1.53.64-2.03c.43-.5,1-.75,1.73-.75M649.25,446.38c-.39,0-.7.17-.93.51-.23.33-.33.8-.33,1.39s.11,1.07.33,1.41.53.51.93.51.7-.17.93-.51.34-.81.34-1.41-.12-1.05-.34-1.39-.54-.51-.93-.51M655.42,445.51h1.09l-6.38,10.59h-1.09l6.38-10.59M649.25,445.51c.72,0,1.29.25,1.72.75s.64,1.17.64,2.02-.21,1.54-.64,2.04c-.42.5-1,.75-1.72.75s-1.3-.25-1.72-.75c-.42-.5-.63-1.18-.63-2.04s.21-1.52.64-2.02,1-.75,1.72-.75h0Z"/>
  <polyline class="cls-14" points="480.62 471.5 494.62 471.5 508.62 471.5"/>
  <rect class="cls-5" x="488.63" y="465.5" width="12" height="12"/>
  <polygon class="cls-16" points="521.26 466.09 522.64 466.09 522.64 476.3 521.26 476.3 521.26 466.09 521.26 466.09"/>
  <path class="cls-16" d="M531.65,471.68v4.62h-1.26v-4.58c0-.72-.14-1.26-.42-1.63-.28-.36-.7-.54-1.27-.54-.68,0-1.22.22-1.61.65s-.59,1.03-.59,1.77v4.33h-1.26v-7.66h1.26v1.19c.3-.46.66-.81,1.06-1.03.41-.23.88-.34,1.42-.34.88,0,1.54.27,2,.82.45.54.68,1.34.68,2.4h0Z"/>
  <path class="cls-16" d="M534.16,468.64h1.26v7.79c0,.98-.18,1.68-.56,2.12-.37.44-.96.66-1.79.66h-.48v-1.07h.33c.48,0,.81-.11.98-.33.17-.22.26-.68.26-1.37v-7.79M534.16,465.66h1.26v1.59h-1.26v-1.59h0Z"/>
  <path class="cls-16" d="M544.55,472.16v.62h-5.78c.05.87.31,1.52.78,1.98.47.45,1.12.68,1.96.68.49,0,.95-.06,1.4-.18.46-.12.91-.29,1.35-.53v1.19c-.45.19-.92.33-1.39.44s-.96.15-1.44.15c-1.22,0-2.19-.36-2.91-1.07-.71-.71-1.07-1.67-1.07-2.88s.33-2.25,1.01-2.98c.68-.74,1.59-1.11,2.74-1.11,1.03,0,1.85.33,2.44,1,.6.66.9,1.56.9,2.7M543.29,471.79c0-.69-.21-1.24-.58-1.65s-.87-.62-1.49-.62c-.7,0-1.26.2-1.69.59-.42.4-.66.96-.72,1.67h4.48Z"/>
  <path class="cls-16" d="M552.15,468.94v1.18c-.36-.2-.71-.34-1.07-.44-.36-.1-.72-.15-1.08-.15-.81,0-1.45.26-1.9.78-.45.51-.68,1.24-.68,2.17s.23,1.66.68,2.18c.45.51,1.09.77,1.9.77.36,0,.72-.05,1.08-.14.36-.1.72-.25,1.07-.44v1.16c-.35.16-.72.29-1.09.37s-.77.12-1.2.12c-1.16,0-2.07-.36-2.75-1.09-.68-.72-1.02-1.7-1.02-2.93s.34-2.23,1.03-2.95c.69-.72,1.63-1.07,2.82-1.07.39,0,.77.04,1.13.12.37.08.72.2,1.07.36h0Z"/>
  <path class="cls-16" d="M555.57,466.47v2.17h2.59v.98h-2.59v4.16c0,.62.08,1.03.25,1.2.17.18.52.27,1.05.27h1.29v1.05h-1.29c-.97,0-1.64-.18-2.01-.54-.37-.36-.55-1.03-.55-1.98v-4.16h-.92v-.98h.92v-2.17h1.26Z"/>
  <path class="cls-16" d="M559.84,468.64h1.26v7.66h-1.26v-7.66M559.84,465.66h1.26v1.59h-1.26v-1.59h0Z"/>
  <path class="cls-16" d="M566.65,469.53c-.68,0-1.21.27-1.6.79-.39.53-.59,1.24-.59,2.16s.19,1.64.58,2.17c.39.53.93.79,1.61.79s1.2-.27,1.59-.79c.39-.53.59-1.25.59-2.16s-.2-1.63-.59-2.15c-.39-.53-.92-.8-1.59-.8M566.65,468.46c1.09,0,1.96.36,2.58,1.07.62.71.94,1.7.94,2.95s-.31,2.24-.94,2.95c-.62.71-1.48,1.07-2.58,1.07s-1.96-.36-2.58-1.07c-.62-.72-.93-1.7-.93-2.95s.31-2.24.93-2.95c.62-.71,1.48-1.07,2.58-1.07h0Z"/>
  <path class="cls-16" d="M578.69,471.68v4.62h-1.26v-4.58c0-.72-.14-1.26-.42-1.63-.28-.36-.7-.54-1.27-.54-.68,0-1.22.22-1.61.65s-.59,1.03-.59,1.77v4.33h-1.26v-7.66h1.26v1.19c.3-.46.66-.81,1.06-1.03.41-.23.88-.34,1.42-.34.88,0,1.54.27,2,.82.45.54.68,1.34.68,2.4h0Z"/>
  <path class="cls-16" d="M589.96,469.82c-.14-.08-.29-.14-.46-.18-.16-.04-.35-.06-.55-.06-.71,0-1.26.23-1.64.7-.38.46-.57,1.12-.57,1.99v4.03h-1.26v-7.66h1.26v1.19c.27-.46.61-.81,1.03-1.03s.94-.34,1.54-.34c.09,0,.18,0,.29.02.1,0,.22.03.35.05v1.29h0Z"/>
  <path class="cls-16" d="M594.76,472.45c-1.02,0-1.72.12-2.11.35-.39.23-.59.63-.59,1.19,0,.44.14.8.44,1.07.29.26.7.39,1.2.39.7,0,1.26-.25,1.67-.74.42-.5.64-1.16.64-1.98v-.28h-1.25M597.27,471.93v4.37h-1.26v-1.16c-.29.46-.64.81-1.07,1.03-.43.22-.95.33-1.57.33-.79,0-1.41-.22-1.87-.66-.46-.44-.69-1.03-.69-1.77,0-.86.29-1.51.86-1.95.58-.44,1.44-.66,2.58-.66h1.76v-.12c0-.58-.19-1.03-.57-1.34-.38-.32-.91-.48-1.6-.48-.44,0-.86.05-1.28.16-.42.1-.81.26-1.2.47v-1.16c.46-.18.91-.31,1.34-.4.43-.09.85-.14,1.26-.14,1.11,0,1.93.29,2.48.86.55.57.82,1.44.82,2.61h0Z"/>
  <path class="cls-16" d="M601.17,466.47v2.17h2.59v.98h-2.59v4.16c0,.62.08,1.03.25,1.2.17.18.52.27,1.05.27h1.29v1.05h-1.29c-.97,0-1.64-.18-2.01-.54-.37-.36-.55-1.03-.55-1.98v-4.16h-.92v-.98h.92v-2.17h1.26Z"/>
  <path class="cls-16" d="M605.44,468.64h1.26v7.66h-1.26v-7.66M605.44,465.66h1.26v1.59h-1.26v-1.59h0Z"/>
  <path class="cls-16" d="M612.25,469.53c-.68,0-1.21.27-1.6.79-.39.53-.59,1.24-.59,2.16s.19,1.64.58,2.17c.39.53.93.79,1.61.79s1.2-.27,1.59-.79c.39-.53.59-1.25.59-2.16s-.2-1.63-.59-2.15c-.39-.53-.92-.8-1.59-.8M612.25,468.46c1.09,0,1.96.36,2.58,1.07.62.71.94,1.7.94,2.95s-.31,2.24-.94,2.95c-.62.71-1.48,1.07-2.58,1.07s-1.96-.36-2.58-1.07c-.62-.72-.93-1.7-.93-2.95s.31-2.24.93-2.95c.62-.71,1.48-1.07,2.58-1.07h0Z"/>
  <path class="cls-16" d="M622.41,469.94h8.76v1.15h-8.76v-1.15M622.41,472.73h8.76v1.16h-8.76v-1.16h0Z"/>
  <polygon class="cls-16" points="638.98 475.14 641.24 475.14 641.24 467.35 638.78 467.84 638.78 466.59 641.22 466.09 642.6 466.09 642.6 475.14 644.86 475.14 644.86 476.3 638.98 476.3 638.98 475.14 638.98 475.14"/>
  <path class="cls-16" d="M650.57,467c-.71,0-1.24.35-1.61,1.05-.36.7-.53,1.75-.53,3.15s.18,2.45.53,3.15c.36.7.9,1.05,1.61,1.05s1.25-.35,1.61-1.05c.36-.7.54-1.75.54-3.15s-.18-2.45-.54-3.15c-.36-.7-.89-1.05-1.61-1.05M650.57,465.91c1.14,0,2.02.45,2.62,1.36.61.9.91,2.21.91,3.94s-.3,3.03-.91,3.94c-.6.9-1.48,1.35-2.62,1.35s-2.02-.45-2.62-1.35c-.6-.91-.9-2.22-.9-3.94s.3-3.04.9-3.94c.61-.91,1.48-1.36,2.62-1.36h0Z"/>
  <path class="cls-16" d="M665.18,471.81c-.4,0-.71.17-.94.51-.23.33-.33.81-.33,1.41s.11,1.06.33,1.4c.23.33.54.51.94.51s.69-.17.92-.51c.23-.34.34-.81.34-1.4s-.12-1.07-.34-1.4c-.23-.34-.53-.51-.92-.51M665.18,470.94c.72,0,1.29.25,1.72.75.42.5.64,1.18.64,2.03s-.21,1.53-.64,2.03c-.42.5-.99.75-1.71.75s-1.31-.25-1.73-.75c-.42-.5-.64-1.18-.64-2.03s.21-1.53.64-2.03c.43-.5,1-.75,1.73-.75M658.13,466.78c-.39,0-.7.17-.93.51-.23.33-.33.8-.33,1.39s.11,1.07.33,1.41c.23.33.53.51.93.51s.7-.17.93-.51c.23-.33.34-.81.34-1.41s-.12-1.05-.34-1.39c-.23-.34-.54-.51-.93-.51M664.3,465.91h1.09l-6.38,10.59h-1.09l6.38-10.59M658.13,465.91c.72,0,1.29.25,1.72.75.43.5.64,1.17.64,2.02s-.21,1.54-.64,2.04c-.42.5-1,.75-1.72.75s-1.3-.25-1.72-.75c-.42-.5-.63-1.18-.63-2.04s.21-1.52.64-2.02c.42-.5,1-.75,1.72-.75h0Z"/>
  <polyline class="cls-10" points="480.62 492.05 494.62 492.05 508.62 492.05"/>
  <polygon class="cls-4" points="494.63 486.05 488.92 490.19 491.1 496.9 498.15 496.9 500.33 490.19 494.63 486.05"/>
  <polygon class="cls-16" points="521.26 486.73 522.64 486.73 522.64 496.94 521.26 496.94 521.26 486.73 521.26 486.73"/>
  <path class="cls-16" d="M531.65,492.32v4.62h-1.26v-4.58c0-.72-.14-1.26-.42-1.63s-.7-.54-1.27-.54c-.68,0-1.22.22-1.61.65s-.59,1.03-.59,1.77v4.33h-1.26v-7.66h1.26v1.19c.3-.46.66-.81,1.06-1.03.41-.23.88-.34,1.42-.34.88,0,1.54.27,2,.82.45.54.68,1.34.68,2.4h0Z"/>
  <path class="cls-16" d="M534.16,489.28h1.26v7.79c0,.98-.18,1.68-.56,2.12-.37.44-.96.66-1.79.66h-.48v-1.07h.33c.48,0,.81-.11.98-.33.17-.22.26-.68.26-1.37v-7.79M534.16,486.3h1.26v1.59h-1.26v-1.59h0Z"/>
  <path class="cls-16" d="M544.55,492.8v.62h-5.78c.05.87.31,1.52.78,1.98.47.45,1.12.68,1.96.68.49,0,.95-.06,1.4-.18.46-.12.91-.29,1.35-.53v1.19c-.45.19-.92.33-1.39.44s-.96.15-1.44.15c-1.22,0-2.19-.36-2.91-1.07-.71-.71-1.07-1.67-1.07-2.88s.33-2.25,1.01-2.98c.68-.74,1.59-1.11,2.74-1.11,1.03,0,1.85.33,2.44,1,.6.66.9,1.56.9,2.7M543.29,492.43c0-.69-.21-1.24-.58-1.65s-.87-.62-1.49-.62c-.7,0-1.26.2-1.69.59-.42.4-.66.96-.72,1.67h4.48Z"/>
  <path class="cls-16" d="M552.15,489.58v1.18c-.36-.2-.71-.34-1.07-.44-.36-.1-.72-.15-1.08-.15-.81,0-1.45.26-1.9.78-.45.51-.68,1.24-.68,2.17s.23,1.66.68,2.18c.45.51,1.09.77,1.9.77.36,0,.72-.05,1.08-.14.36-.1.72-.25,1.07-.44v1.16c-.35.16-.72.29-1.09.37s-.77.12-1.2.12c-1.16,0-2.07-.36-2.75-1.09s-1.02-1.7-1.02-2.93.34-2.23,1.03-2.95c.69-.72,1.63-1.07,2.82-1.07.39,0,.77.04,1.13.12.37.08.72.2,1.07.36h0Z"/>
  <path class="cls-16" d="M555.57,487.11v2.17h2.59v.98h-2.59v4.16c0,.62.08,1.03.25,1.2s.52.27,1.05.27h1.29v1.05h-1.29c-.97,0-1.64-.18-2.01-.54s-.55-1.03-.55-1.98v-4.16h-.92v-.98h.92v-2.17h1.26Z"/>
  <path class="cls-16" d="M559.84,489.28h1.26v7.66h-1.26v-7.66M559.84,486.3h1.26v1.59h-1.26v-1.59h0Z"/>
  <path class="cls-16" d="M566.65,490.17c-.68,0-1.21.27-1.6.79s-.59,1.24-.59,2.16.19,1.64.58,2.17.93.79,1.61.79,1.2-.27,1.59-.79.59-1.25.59-2.16-.2-1.63-.59-2.15c-.39-.53-.92-.8-1.59-.8M566.65,489.1c1.09,0,1.96.36,2.58,1.07s.94,1.7.94,2.95-.31,2.24-.94,2.95c-.62.71-1.48,1.07-2.58,1.07s-1.96-.36-2.58-1.07c-.62-.72-.93-1.7-.93-2.95s.31-2.24.93-2.95,1.48-1.07,2.58-1.07h0Z"/>
  <path class="cls-16" d="M578.69,492.32v4.62h-1.26v-4.58c0-.72-.14-1.26-.42-1.63s-.7-.54-1.27-.54c-.68,0-1.22.22-1.61.65s-.59,1.03-.59,1.77v4.33h-1.26v-7.66h1.26v1.19c.3-.46.66-.81,1.06-1.03.41-.23.88-.34,1.42-.34.88,0,1.54.27,2,.82.45.54.68,1.34.68,2.4h0Z"/>
  <path class="cls-16" d="M589.96,490.46c-.14-.08-.29-.14-.46-.18-.16-.04-.35-.06-.55-.06-.71,0-1.26.23-1.64.7-.38.46-.57,1.12-.57,1.99v4.03h-1.26v-7.66h1.26v1.19c.27-.46.61-.81,1.03-1.03s.94-.34,1.54-.34c.09,0,.18,0,.29.02.1,0,.22.03.35.05v1.29h0Z"/>
  <path class="cls-16" d="M594.76,493.09c-1.02,0-1.72.12-2.11.35s-.59.63-.59,1.19c0,.44.14.8.44,1.07.29.26.7.39,1.2.39.7,0,1.26-.25,1.67-.74.42-.5.64-1.16.64-1.98v-.28h-1.25M597.27,492.57v4.37h-1.26v-1.16c-.29.46-.64.81-1.07,1.03-.43.22-.95.33-1.57.33-.79,0-1.41-.22-1.87-.66-.46-.44-.69-1.03-.69-1.77,0-.86.29-1.51.86-1.95.58-.44,1.44-.66,2.58-.66h1.76v-.12c0-.58-.19-1.03-.57-1.34-.38-.32-.91-.48-1.6-.48-.44,0-.86.05-1.28.16-.42.1-.81.26-1.2.47v-1.16c.46-.18.91-.31,1.34-.4s.85-.14,1.26-.14c1.11,0,1.93.29,2.48.86.55.57.82,1.44.82,2.61h0Z"/>
  <path class="cls-16" d="M601.17,487.11v2.17h2.59v.98h-2.59v4.16c0,.62.08,1.03.25,1.2s.52.27,1.05.27h1.29v1.05h-1.29c-.97,0-1.64-.18-2.01-.54s-.55-1.03-.55-1.98v-4.16h-.92v-.98h.92v-2.17h1.26Z"/>
  <path class="cls-16" d="M605.44,489.28h1.26v7.66h-1.26v-7.66M605.44,486.3h1.26v1.59h-1.26v-1.59h0Z"/>
  <path class="cls-16" d="M612.25,490.17c-.68,0-1.21.27-1.6.79s-.59,1.24-.59,2.16.19,1.64.58,2.17.93.79,1.61.79,1.2-.27,1.59-.79.59-1.25.59-2.16-.2-1.63-.59-2.15c-.39-.53-.92-.8-1.59-.8M612.25,489.1c1.09,0,1.96.36,2.58,1.07s.94,1.7.94,2.95-.31,2.24-.94,2.95c-.62.71-1.48,1.07-2.58,1.07s-1.96-.36-2.58-1.07c-.62-.72-.93-1.7-.93-2.95s.31-2.24.93-2.95,1.48-1.07,2.58-1.07h0Z"/>
  <path class="cls-16" d="M622.41,490.58h8.76v1.15h-8.76v-1.15M622.41,493.37h8.76v1.16h-8.76v-1.16h0Z"/>
  <polygon class="cls-16" points="638.98 495.78 641.24 495.78 641.24 487.99 638.78 488.48 638.78 487.23 641.22 486.73 642.6 486.73 642.6 495.78 644.86 495.78 644.86 496.94 638.98 496.94 638.98 495.78 638.98 495.78"/>
  <path class="cls-16" d="M647.63,486.73h5.42v1.16h-4.16v2.5c.2-.07.4-.12.6-.15s.4-.05.6-.05c1.14,0,2.04.31,2.71.94s1,1.47,1,2.54-.34,1.96-1.03,2.56-1.65.91-2.89.91c-.43,0-.87-.03-1.31-.11s-.9-.18-1.37-.33v-1.39c.41.23.83.39,1.27.5s.9.16,1.39.16c.79,0,1.42-.21,1.87-.62s.69-.98.69-1.69-.23-1.27-.69-1.69-1.09-.62-1.87-.62c-.37,0-.74.04-1.11.12-.36.08-.74.21-1.12.38v-5.13h0Z"/>
  <path class="cls-16" d="M665.18,492.45c-.4,0-.71.17-.94.51s-.33.81-.33,1.41.11,1.06.33,1.4c.23.33.54.51.94.51s.69-.17.92-.51c.23-.34.34-.81.34-1.4s-.12-1.07-.34-1.4c-.23-.34-.53-.51-.92-.51M665.18,491.58c.72,0,1.29.25,1.72.75s.64,1.18.64,2.03-.21,1.53-.64,2.03c-.42.5-.99.75-1.71.75s-1.31-.25-1.73-.75-.64-1.18-.64-2.03.21-1.53.64-2.03c.43-.5,1-.75,1.73-.75M658.13,487.42c-.39,0-.7.17-.93.51-.23.33-.33.8-.33,1.39s.11,1.07.33,1.41.53.51.93.51.7-.17.93-.51.34-.81.34-1.41-.12-1.05-.34-1.39-.54-.51-.93-.51M664.3,486.55h1.09l-6.38,10.59h-1.09l6.38-10.59M658.13,486.55c.72,0,1.29.25,1.72.75s.64,1.17.64,2.02-.21,1.54-.64,2.04c-.42.5-1,.75-1.72.75s-1.3-.25-1.72-.75c-.42-.5-.63-1.18-.63-2.04s.21-1.52.64-2.02,1-.75,1.72-.75h0Z"/>
  <polyline class="cls-13" points="480.62 512.59 494.62 512.59 508.62 512.59"/>
  <polygon class="cls-6" points="494.63 506.59 489.43 509.59 489.43 515.59 494.63 518.59 499.82 515.59 499.82 509.59 494.63 506.59"/>
  <polygon class="cls-16" points="521.26 507.37 522.64 507.37 522.64 517.58 521.26 517.58 521.26 507.37 521.26 507.37"/>
  <path class="cls-16" d="M531.65,512.96v4.62h-1.26v-4.58c0-.72-.14-1.26-.42-1.63-.28-.36-.7-.54-1.27-.54-.68,0-1.22.22-1.61.65s-.59,1.03-.59,1.77v4.33h-1.26v-7.66h1.26v1.19c.3-.46.66-.81,1.06-1.03.41-.23.88-.34,1.42-.34.88,0,1.54.27,2,.82.45.54.68,1.34.68,2.4h0Z"/>
  <path class="cls-16" d="M534.16,509.92h1.26v7.79c0,.98-.18,1.68-.56,2.12-.37.44-.96.66-1.79.66h-.48v-1.07h.33c.48,0,.81-.11.98-.33.17-.22.26-.68.26-1.37v-7.79M534.16,506.94h1.26v1.59h-1.26v-1.59h0Z"/>
  <path class="cls-16" d="M544.55,513.44v.62h-5.78c.05.87.31,1.52.78,1.98.47.45,1.12.68,1.96.68.49,0,.95-.06,1.4-.18.46-.12.91-.29,1.35-.53v1.19c-.45.19-.92.33-1.39.44s-.96.15-1.44.15c-1.22,0-2.19-.36-2.91-1.07-.71-.71-1.07-1.67-1.07-2.88s.33-2.25,1.01-2.98c.68-.74,1.59-1.11,2.74-1.11,1.03,0,1.85.33,2.44,1,.6.66.9,1.56.9,2.7M543.29,513.07c0-.69-.21-1.24-.58-1.65s-.87-.62-1.49-.62c-.7,0-1.26.2-1.69.59-.42.4-.66.96-.72,1.67h4.48Z"/>
  <path class="cls-16" d="M552.15,510.22v1.18c-.36-.2-.71-.34-1.07-.44-.36-.1-.72-.15-1.08-.15-.81,0-1.45.26-1.9.78-.45.51-.68,1.24-.68,2.17s.23,1.66.68,2.18c.45.51,1.09.77,1.9.77.36,0,.72-.05,1.08-.14.36-.1.72-.25,1.07-.44v1.16c-.35.16-.72.29-1.09.37s-.77.12-1.2.12c-1.16,0-2.07-.36-2.75-1.09-.68-.72-1.02-1.7-1.02-2.93s.34-2.23,1.03-2.95c.69-.72,1.63-1.07,2.82-1.07.39,0,.77.04,1.13.12.37.08.72.2,1.07.36h0Z"/>
  <path class="cls-16" d="M555.57,507.75v2.17h2.59v.98h-2.59v4.16c0,.62.08,1.03.25,1.2.17.18.52.27,1.05.27h1.29v1.05h-1.29c-.97,0-1.64-.18-2.01-.54-.37-.36-.55-1.03-.55-1.98v-4.16h-.92v-.98h.92v-2.17h1.26Z"/>
  <path class="cls-16" d="M559.84,509.92h1.26v7.66h-1.26v-7.66M559.84,506.94h1.26v1.59h-1.26v-1.59h0Z"/>
  <path class="cls-16" d="M566.65,510.81c-.68,0-1.21.27-1.6.79-.39.53-.59,1.24-.59,2.16s.19,1.64.58,2.17c.39.53.93.79,1.61.79s1.2-.27,1.59-.79c.39-.53.59-1.25.59-2.16s-.2-1.63-.59-2.15c-.39-.53-.92-.8-1.59-.8M566.65,509.74c1.09,0,1.96.36,2.58,1.07.62.71.94,1.7.94,2.95s-.31,2.24-.94,2.95c-.62.71-1.48,1.07-2.58,1.07s-1.96-.36-2.58-1.07c-.62-.72-.93-1.7-.93-2.95s.31-2.24.93-2.95c.62-.71,1.48-1.07,2.58-1.07h0Z"/>
  <path class="cls-16" d="M578.69,512.96v4.62h-1.26v-4.58c0-.72-.14-1.26-.42-1.63-.28-.36-.7-.54-1.27-.54-.68,0-1.22.22-1.61.65s-.59,1.03-.59,1.77v4.33h-1.26v-7.66h1.26v1.19c.3-.46.66-.81,1.06-1.03.41-.23.88-.34,1.42-.34.88,0,1.54.27,2,.82.45.54.68,1.34.68,2.4h0Z"/>
  <path class="cls-16" d="M589.96,511.1c-.14-.08-.29-.14-.46-.18-.16-.04-.35-.06-.55-.06-.71,0-1.26.23-1.64.7-.38.46-.57,1.12-.57,1.99v4.03h-1.26v-7.66h1.26v1.19c.27-.46.61-.81,1.03-1.03s.94-.34,1.54-.34c.09,0,.18,0,.29.02.1,0,.22.03.35.05v1.29h0Z"/>
  <path class="cls-16" d="M594.76,513.73c-1.02,0-1.72.12-2.11.35-.39.23-.59.63-.59,1.19,0,.44.14.8.44,1.07.29.26.7.39,1.2.39.7,0,1.26-.25,1.67-.74.42-.5.64-1.16.64-1.98v-.28h-1.25M597.27,513.21v4.37h-1.26v-1.16c-.29.46-.64.81-1.07,1.03-.43.22-.95.33-1.57.33-.79,0-1.41-.22-1.87-.66-.46-.44-.69-1.03-.69-1.77,0-.86.29-1.51.86-1.95.58-.44,1.44-.66,2.58-.66h1.76v-.12c0-.58-.19-1.03-.57-1.34-.38-.32-.91-.48-1.6-.48-.44,0-.86.05-1.28.16-.42.1-.81.26-1.2.47v-1.16c.46-.18.91-.31,1.34-.4.43-.09.85-.14,1.26-.14,1.11,0,1.93.29,2.48.86.55.57.82,1.44.82,2.61h0Z"/>
  <path class="cls-16" d="M601.17,507.75v2.17h2.59v.98h-2.59v4.16c0,.62.08,1.03.25,1.2.17.18.52.27,1.05.27h1.29v1.05h-1.29c-.97,0-1.64-.18-2.01-.54-.37-.36-.55-1.03-.55-1.98v-4.16h-.92v-.98h.92v-2.17h1.26Z"/>
  <path class="cls-16" d="M605.44,509.92h1.26v7.66h-1.26v-7.66M605.44,506.94h1.26v1.59h-1.26v-1.59h0Z"/>
  <path class="cls-16" d="M612.25,510.81c-.68,0-1.21.27-1.6.79-.39.53-.59,1.24-.59,2.16s.19,1.64.58,2.17c.39.53.93.79,1.61.79s1.2-.27,1.59-.79c.39-.53.59-1.25.59-2.16s-.2-1.63-.59-2.15c-.39-.53-.92-.8-1.59-.8M612.25,509.74c1.09,0,1.96.36,2.58,1.07.62.71.94,1.7.94,2.95s-.31,2.24-.94,2.95c-.62.71-1.48,1.07-2.58,1.07s-1.96-.36-2.58-1.07c-.62-.72-.93-1.7-.93-2.95s.31-2.24.93-2.95c.62-.71,1.48-1.07,2.58-1.07h0Z"/>
  <path class="cls-16" d="M622.41,511.22h8.76v1.15h-8.76v-1.15M622.41,514.01h8.76v1.16h-8.76v-1.16h0Z"/>
  <path class="cls-16" d="M639.93,516.42h4.82v1.16h-6.48v-1.16c.53-.54,1.24-1.27,2.14-2.18.91-.92,1.48-1.5,1.71-1.77.44-.5.75-.92.92-1.26.18-.35.27-.68.27-1.02,0-.54-.19-.98-.57-1.33-.38-.34-.88-.51-1.48-.51-.43,0-.89.08-1.37.23-.48.15-.99.38-1.54.68v-1.39c.55-.23,1.07-.39,1.56-.51.49-.12.92-.17,1.33-.17,1.06,0,1.9.27,2.53.79.63.53.94,1.24.94,2.12,0,.42-.08.82-.24,1.2-.16.38-.44.81-.85,1.33-.12.13-.48.51-1.09,1.15-.61.63-1.47,1.51-2.58,2.65h0Z"/>
  <path class="cls-16" d="M650.57,508.28c-.71,0-1.24.35-1.61,1.05-.36.7-.53,1.75-.53,3.15s.18,2.45.53,3.15c.36.7.9,1.05,1.61,1.05s1.25-.35,1.61-1.05c.36-.7.54-1.75.54-3.15s-.18-2.45-.54-3.15c-.36-.7-.89-1.05-1.61-1.05M650.57,507.19c1.14,0,2.02.45,2.62,1.36.61.9.91,2.21.91,3.94s-.3,3.03-.91,3.94c-.6.9-1.48,1.35-2.62,1.35s-2.02-.45-2.62-1.35c-.6-.91-.9-2.22-.9-3.94s.3-3.04.9-3.94c.61-.91,1.48-1.36,2.62-1.36h0Z"/>
  <path class="cls-16" d="M665.18,513.09c-.4,0-.71.17-.94.51-.23.33-.33.81-.33,1.41s.11,1.06.33,1.4c.23.33.54.51.94.51s.69-.17.92-.51c.23-.34.34-.81.34-1.4s-.12-1.07-.34-1.4c-.23-.34-.53-.51-.92-.51M665.18,512.22c.72,0,1.29.25,1.72.75.42.5.64,1.18.64,2.03s-.21,1.53-.64,2.03c-.42.5-.99.75-1.71.75s-1.31-.25-1.73-.75c-.42-.5-.64-1.18-.64-2.03s.21-1.53.64-2.03c.43-.5,1-.75,1.73-.75M658.13,508.06c-.39,0-.7.17-.93.51-.23.33-.33.8-.33,1.39s.11,1.07.33,1.41c.23.33.53.51.93.51s.7-.17.93-.51c.23-.33.34-.81.34-1.41s-.12-1.05-.34-1.39c-.23-.34-.54-.51-.93-.51M664.3,507.19h1.09l-6.38,10.59h-1.09l6.38-10.59M658.13,507.19c.72,0,1.29.25,1.72.75.43.5.64,1.17.64,2.02s-.21,1.54-.64,2.04c-.42.5-1,.75-1.72.75s-1.3-.25-1.72-.75c-.42-.5-.63-1.18-.63-2.04s.21-1.52.64-2.02c.42-.5,1-.75,1.72-.75h0Z"/>
</svg>