<?xml version="1.0" encoding="UTF-8"?>
<svg id="Layer_1" xmlns="http://www.w3.org/2000/svg" version="1.1" viewBox="0 0 960 232.86">
  <!-- Generator: Adobe Illustrator 29.8.2, SVG Export Plug-In . SVG Version: 2.1.1 Build 3)  -->
  <defs>
    <style>
      .st0 {
        fill: #cda2be;
      }

      .st1 {
        letter-spacing: .02em;
      }

      .st2 {
        letter-spacing: 0em;
      }

      .st3 {
        fill: #a9c4eb;
      }

      .st4 {
        letter-spacing: 0em;
      }

      .st5 {
        letter-spacing: 0em;
      }

      .st6 {
        letter-spacing: 0em;
      }

      .st7 {
        letter-spacing: 0em;
      }

      .st8 {
        letter-spacing: -.01em;
      }

      .st9 {
        letter-spacing: 0em;
      }

      .st10 {
        letter-spacing: 0em;
      }

      .st11 {
        letter-spacing: 0em;
      }

      .st12 {
        letter-spacing: 0em;
      }

      .st13 {
        letter-spacing: 0em;
      }

      .st14 {
        letter-spacing: 0em;
      }

      .st15 {
        fill: #d5e8d4;
      }

      .st16 {
        fill: none;
        stroke: #fff;
        stroke-miterlimit: 8;
      }

      .st17 {
        letter-spacing: 0em;
      }

      .st18 {
        letter-spacing: 0em;
      }

      .st19 {
        letter-spacing: 0em;
      }

      .st20 {
        letter-spacing: 0em;
      }

      .st21 {
        letter-spacing: 0em;
      }

      .st22 {
        letter-spacing: 0em;
      }

      .st23 {
        letter-spacing: 0em;
      }

      .st24 {
        letter-spacing: 0em;
      }

      .st25 {
        font-size: 32.04px;
      }

      .st25, .st26, .st27, .st28 {
        font-family: Calibri-BoldItalic, Calibri;
        font-style: italic;
        font-weight: 700;
      }

      .st29 {
        letter-spacing: 0em;
      }

      .st30 {
        letter-spacing: 0em;
      }

      .st31 {
        letter-spacing: 0em;
      }

      .st32 {
        letter-spacing: 0em;
      }

      .st33 {
        letter-spacing: 0em;
      }

      .st34 {
        letter-spacing: 0em;
      }

      .st35 {
        letter-spacing: 0em;
      }

      .st36 {
        letter-spacing: 0em;
      }

      .st37 {
        letter-spacing: 0em;
      }

      .st38 {
        letter-spacing: 0em;
      }

      .st39 {
        letter-spacing: 0em;
      }

      .st26 {
        font-size: 27.96px;
      }

      .st40 {
        letter-spacing: 0em;
      }

      .st27 {
        font-size: 24px;
      }

      .st41 {
        fill: #faa916;
      }

      .st42 {
        letter-spacing: 0em;
      }

      .st28 {
        font-size: 15.96px;
      }

      .st43 {
        letter-spacing: 0em;
      }

      .st44 {
        letter-spacing: 0em;
      }

      .st45 {
        letter-spacing: 0em;
      }

      .st46 {
        letter-spacing: 0em;
      }
    </style>
  </defs>
  <g>
    <path class="st0" d="M33.38,17h893.24c2.32,0,4.21,1.89,4.21,4.21v33.69c0,2.32-1.89,4.21-4.21,4.21H33.38c-2.32,0-4.21-1.89-4.21-4.21V21.22c0-2.32,1.89-4.21,4.21-4.21Z"/>
    <path class="st16" d="M33.38,17h893.24c2.32,0,4.21,1.89,4.21,4.21v33.69c0,2.32-1.89,4.21-4.21,4.21H33.38c-2.32,0-4.21-1.89-4.21-4.21V21.22c0-2.32,1.89-4.21,4.21-4.21Z"/>
  </g>
  <text class="st26" transform="translate(308.8 45.96)"><tspan class="st7" x="0" y="0">L</tspan><tspan x="11.88" y="0">og</tspan></text>
  <text class="st26" transform="translate(350.21 45.96)"><tspan x="0" y="0">-</tspan></text>
  <text class="st26" transform="translate(358.74 45.96)"><tspan x="0" y="0">bas</tspan><tspan class="st5" x="40.53" y="0">e</tspan><tspan class="st45" x="54.24" y="0">d</tspan><tspan class="st37" x="69" y="0"> </tspan><tspan x="75.46" y="0">ano</tspan><tspan class="st4" x="119.71" y="0">m</tspan><tspan class="st36" x="142.15" y="0">al</tspan><tspan class="st30" x="163.78" y="0">y</tspan><tspan class="st42" x="176.95" y="0"> </tspan><tspan x="183.41" y="0">d</tspan><tspan class="st34" x="198.17" y="0">e</tspan><tspan class="st18" x="211.62" y="0">t</tspan><tspan class="st43" x="221.12" y="0">e</tspan><tspan x="234.8" y="0">ct</tspan><tspan class="st4" x="256" y="0">i</tspan><tspan x="262.84" y="0">on</tspan></text>
  <g>
    <rect class="st3" x="30.05" y="69.73" width="357.61" height="42.11" rx="4.21" ry="4.21"/>
    <rect class="st16" x="30.05" y="69.73" width="357.61" height="42.11" rx="4.21" ry="4.21"/>
  </g>
  <text class="st27" transform="translate(160.16 97.52)"><tspan class="st12" x="0" y="0">U</tspan><tspan class="st22" x="15.72" y="0">n</tspan><tspan x="28.32" y="0">i</tspan><tspan class="st19" x="34.22" y="0">m</tspan><tspan class="st22" x="53.53" y="0">o</tspan><tspan class="st12" x="66.14" y="0">da</tspan><tspan x="91.57" y="0">l</tspan></text>
  <g>
    <rect class="st3" x="30.08" y="122.45" width="125.82" height="42.11" rx="4.21" ry="4.21"/>
    <rect class="st16" x="30.08" y="122.45" width="125.82" height="42.11" rx="4.21" ry="4.21"/>
  </g>
  <text class="st28" transform="translate(39.6 148.04)"><tspan x="0" y="0">S</tspan><tspan class="st14" x="7.43" y="0">e</tspan><tspan class="st33" x="15.23" y="0">qu</tspan><tspan class="st38" x="32.04" y="0">e</tspan><tspan class="st33" x="39.85" y="0">n</tspan><tspan class="st20" x="48.25" y="0">c</tspan><tspan class="st10" x="54.74" y="0">e</tspan></text>
  <text class="st28" transform="translate(102.12 148.04)"><tspan x="0" y="0">-</tspan></text>
  <text class="st28" transform="translate(107.03 148.04)"><tspan class="st33" x="0" y="0">ba</tspan><tspan class="st32" x="16.82" y="0">s</tspan><tspan class="st14" x="23.06" y="0">e</tspan><tspan x="30.87" y="0">d</tspan></text>
  <g>
    <rect class="st3" x="165.62" y="122.45" width="120.74" height="42.11" rx="4.21" ry="4.21"/>
    <rect class="st16" x="165.62" y="122.45" width="120.74" height="42.11" rx="4.21" ry="4.21"/>
  </g>
  <text class="st28" transform="translate(173.45 148.04)"><tspan x="0" y="0">S</tspan><tspan class="st14" x="7.43" y="0">e</tspan><tspan x="15.23" y="0">m</tspan><tspan class="st33" x="28.06" y="0">a</tspan><tspan class="st29" x="36.47" y="0">n</tspan><tspan class="st10" x="44.76" y="0">t</tspan><tspan class="st11" x="50.29" y="0">i</tspan><tspan x="54.24" y="0">c</tspan></text>
  <text class="st28" transform="translate(234.29 148.04)"><tspan x="0" y="0">-</tspan></text>
  <text class="st28" transform="translate(239.21 148.04)"><tspan class="st33" x="0" y="0">ba</tspan><tspan class="st32" x="16.82" y="0">s</tspan><tspan class="st14" x="23.06" y="0">e</tspan><tspan x="30.87" y="0">d</tspan></text>
  <g>
    <path class="st3" d="M300.27,122.45h83.14c2.32,0,4.21,1.89,4.21,4.21v33.69c0,2.32-1.89,4.21-4.21,4.21h-83.13c-2.32,0-4.21-1.89-4.21-4.21v-33.69c0-2.32,1.89-4.21,4.21-4.21Z"/>
    <path class="st16" d="M300.27,122.45h83.14c2.32,0,4.21,1.89,4.21,4.21v33.69c0,2.32-1.89,4.21-4.21,4.21h-83.13c-2.32,0-4.21-1.89-4.21-4.21v-33.69c0-2.32,1.89-4.21,4.21-4.21Z"/>
  </g>
  <text class="st28" transform="translate(306.06 148.04)"><tspan class="st17" x="0" y="0">LL</tspan><tspan class="st39" x="13.47" y="0">M</tspan></text>
  <text class="st28" transform="translate(333.41 148.04)"><tspan x="0" y="0">-</tspan></text>
  <text class="st28" transform="translate(338.35 148.04)"><tspan class="st33" x="0" y="0">ba</tspan><tspan class="st32" x="16.82" y="0">s</tspan><tspan class="st14" x="23.06" y="0">e</tspan><tspan x="30.87" y="0">d</tspan></text>
  <g>
    <path class="st15" d="M411.34,69.73h514.4c2.32,0,4.21,1.89,4.21,4.21v33.69c0,2.32-1.89,4.21-4.21,4.21H411.34c-2.32,0-4.21-1.89-4.21-4.21v-33.69c0-2.32,1.89-4.21,4.21-4.21Z"/>
    <path class="st16" d="M411.34,69.73h514.4c2.32,0,4.21,1.89,4.21,4.21v33.69c0,2.32-1.89,4.21-4.21,4.21H411.34c-2.32,0-4.21-1.89-4.21-4.21v-33.69c0-2.32,1.89-4.21,4.21-4.21Z"/>
  </g>
  <text class="st27" transform="translate(610.08 97.52)"><tspan x="0" y="0">M</tspan><tspan class="st22" x="20.98" y="0">u</tspan><tspan x="33.58" y="0">l</tspan><tspan class="st35" x="39.48" y="0">t</tspan><tspan x="47.78" y="0">i</tspan><tspan class="st31" x="53.67" y="0">m</tspan><tspan class="st22" x="72.98" y="0">o</tspan><tspan class="st12" x="85.59" y="0">da</tspan><tspan x="111.02" y="0">l</tspan></text>
  <g>
    <rect class="st15" x="408.15" y="122.45" width="138.05" height="42.11" rx="4.21" ry="4.21"/>
    <rect class="st16" x="408.15" y="122.45" width="138.05" height="42.11" rx="4.21" ry="4.21"/>
  </g>
  <text class="st28" transform="translate(416.46 148.04)"><tspan class="st8" x="0" y="0">E</tspan><tspan class="st33" x="7.56" y="0">a</tspan><tspan class="st9" x="15.97" y="0">r</tspan><tspan class="st11" x="21.6" y="0">l</tspan><tspan class="st46" x="25.56" y="0">y</tspan><tspan class="st39" x="33.11" y="0" xml:space="preserve"> f</tspan><tspan class="st33" x="41.77" y="0">u</tspan><tspan class="st44" x="50.17" y="0">s</tspan><tspan class="st11" x="56.41" y="0">i</tspan><tspan class="st33" x="60.36" y="0">o</tspan><tspan x="68.76" y="0">n</tspan></text>
  <text class="st28" transform="translate(493.61 148.04)"><tspan x="0" y="0">-</tspan></text>
  <text class="st28" transform="translate(498.54 148.04)"><tspan class="st17" x="0" y="0">ba</tspan><tspan class="st32" x="16.82" y="0">s</tspan><tspan class="st14" x="23.06" y="0">e</tspan><tspan x="30.87" y="0">d</tspan></text>
  <g>
    <path class="st15" d="M560.11,122.45h222.69c2.32,0,4.21,1.89,4.21,4.21v33.69c0,2.32-1.89,4.21-4.21,4.21h-222.69c-2.32,0-4.21-1.89-4.21-4.21v-33.69c0-2.32,1.89-4.21,4.21-4.21Z"/>
    <path class="st16" d="M560.11,122.45h222.69c2.32,0,4.21,1.89,4.21,4.21v33.69c0,2.32-1.89,4.21-4.21,4.21h-222.69c-2.32,0-4.21-1.89-4.21-4.21v-33.69c0-2.32,1.89-4.21,4.21-4.21Z"/>
  </g>
  <text class="st28" transform="translate(584.13 148.04)"><tspan class="st32" x="0" y="0">I</tspan><tspan class="st21" x="4.21" y="0">nt</tspan><tspan class="st14" x="17.9" y="0">e</tspan><tspan class="st2" x="25.71" y="0">r</tspan><tspan x="31.34" y="0">m</tspan><tspan class="st14" x="44.17" y="0">e</tspan><tspan class="st17" x="51.98" y="0">d</tspan><tspan class="st11" x="60.39" y="0">i</tspan><tspan class="st17" x="64.34" y="0">a</tspan><tspan class="st24" x="72.75" y="0">t</tspan><tspan class="st14" x="78.15" y="0">e</tspan><tspan class="st1" x="85.96" y="0"> </tspan><tspan x="89.9" y="0">f</tspan><tspan class="st17" x="94.95" y="0">u</tspan><tspan class="st32" x="103.35" y="0">s</tspan><tspan class="st11" x="109.59" y="0">i</tspan><tspan class="st17" x="113.55" y="0">o</tspan><tspan x="121.95" y="0">n</tspan></text>
  <text class="st28" transform="translate(714.44 148.04)"><tspan x="0" y="0">-</tspan></text>
  <text class="st28" transform="translate(719.38 148.04)"><tspan class="st17" x="0" y="0">ba</tspan><tspan class="st32" x="16.82" y="0">s</tspan><tspan class="st14" x="23.06" y="0">e</tspan><tspan x="30.87" y="0">d</tspan></text>
  <g>
    <path class="st41" d="M560.11,175.17h222.69c2.32,0,4.21,1.89,4.21,4.21v33.69c0,2.32-1.89,4.21-4.21,4.21h-222.69c-2.32,0-4.21-1.89-4.21-4.21v-33.69c0-2.32,1.89-4.21,4.21-4.21Z"/>
    <path class="st16" d="M560.11,175.17h222.69c2.32,0,4.21,1.89,4.21,4.21v33.69c0,2.32-1.89,4.21-4.21,4.21h-222.69c-2.32,0-4.21-1.89-4.21-4.21v-33.69c0-2.32,1.89-4.21,4.21-4.21Z"/>
  </g>
  <text class="st25" transform="translate(630.93 205.17)"><tspan class="st13" x="0" y="0">C</tspan><tspan x="16.58" y="0">oLog</tspan></text>
  <g>
    <path class="st15" d="M800.93,122.45h123.8c2.32,0,4.21,1.89,4.21,4.21v33.69c0,2.32-1.89,4.21-4.21,4.21h-123.8c-2.32,0-4.21-1.89-4.21-4.21v-33.69c0-2.32,1.89-4.21,4.21-4.21Z"/>
    <path class="st16" d="M800.93,122.45h123.8c2.32,0,4.21,1.89,4.21,4.21v33.69c0,2.32-1.89,4.21-4.21,4.21h-123.8c-2.32,0-4.21-1.89-4.21-4.21v-33.69c0-2.32,1.89-4.21,4.21-4.21Z"/>
  </g>
  <text class="st28" transform="translate(804.43 148.04)"><tspan class="st40" x="0" y="0">La</tspan><tspan class="st24" x="15.14" y="0">t</tspan><tspan class="st23" x="20.55" y="0">e</tspan><tspan class="st6" x="28.35" y="0"> </tspan><tspan x="32.06" y="0">f</tspan><tspan class="st17" x="37.11" y="0">u</tspan><tspan class="st32" x="45.51" y="0">s</tspan><tspan class="st11" x="51.75" y="0">i</tspan><tspan class="st17" x="55.7" y="0">o</tspan><tspan x="64.1" y="0">n</tspan></text>
  <text class="st28" transform="translate(876.89 148.04)"><tspan x="0" y="0">-</tspan></text>
  <text class="st28" transform="translate(881.84 148.04)"><tspan class="st17" x="0" y="0">ba</tspan><tspan class="st32" x="16.82" y="0">s</tspan><tspan class="st14" x="23.06" y="0">e</tspan><tspan x="30.87" y="0">d</tspan></text>
</svg>